<?xml version="1.0" encoding="UTF-8" standalone="no"?>
<!DOCTYPE svg PUBLIC "-//W3C//DTD SVG 1.0//EN" "http://www.w3.org/TR/2001/PR-SVG-20010719/DTD/svg10.dtd">
<svg width="65cm" height="51cm" viewBox="327 48 1294 1005" xmlns="http://www.w3.org/2000/svg" xmlns:xlink="http://www.w3.org/1999/xlink">
  <g>
    <rect style="fill: #ffffff" x="558.828" y="195.028" width="58.8" height="36"/>
    <rect style="fill: none; fill-opacity:0; stroke-width: 2; stroke: #000000" x="558.828" y="195.028" width="58.8" height="36"/>
    <text font-size="12.8" style="fill: #000000;text-anchor:middle;font-family:monospace;font-style:normal;font-weight:normal" x="588.228" y="216.228">User</text>
  </g>
  <g>
    <ellipse style="fill: #ffffff" cx="414.348" cy="214.348" rx="46.95" ry="18"/>
    <ellipse style="fill: none; fill-opacity:0; stroke-width: 2; stroke: #000000" cx="414.348" cy="214.348" rx="46.95" ry="18"/>
    <text font-size="12.8" style="fill: #000000;text-anchor:middle;font-family:monospace;font-style:normal;font-weight:normal" x="414.348" y="217.548">user_id</text>
    <line style="fill: none; fill-opacity:0; stroke-width: 2; stroke: #000000" x1="387.398" y1="222.348" x2="441.298" y2="222.348"/>
  </g>
  <line style="fill: none; fill-opacity:0; stroke-width: 2; stroke: #000000" x1="462.286" y1="213.984" x2="557.822" y2="213.259"/>
  <g>
    <ellipse style="fill: #ffffff" cx="429.844" cy="164.879" rx="50.8" ry="18"/>
    <ellipse style="fill: none; fill-opacity:0; stroke-width: 2; stroke: #000000" cx="429.844" cy="164.879" rx="50.8" ry="18"/>
    <text font-size="12.8" style="fill: #000000;text-anchor:middle;font-family:monospace;font-style:normal;font-weight:normal" x="429.844" y="168.079">username</text>
  </g>
  <g>
    <ellipse style="fill: #ffffff" cx="442.55" cy="112.41" rx="70.05" ry="18"/>
    <ellipse style="fill: none; fill-opacity:0; stroke-width: 2; stroke: #000000" cx="442.55" cy="112.41" rx="70.05" ry="18"/>
    <text font-size="12.8" style="fill: #000000;text-anchor:middle;font-family:monospace;font-style:normal;font-weight:normal" x="442.55" y="115.61">password_hash</text>
  </g>
  <line style="fill: none; fill-opacity:0; stroke-width: 2; stroke: #000000" x1="557.825" y1="203.786" x2="469.324" y2="176.881"/>
  <line style="fill: none; fill-opacity:0; stroke-width: 2; stroke: #000000" x1="560.736" y1="194.04" x2="467.766" y2="129.827"/>
  <g>
    <ellipse style="fill: #ffffff" cx="652.148" cy="171.474" rx="54.65" ry="18"/>
    <ellipse style="fill: none; fill-opacity:0; stroke-width: 2; stroke: #000000" cx="652.148" cy="171.474" rx="54.65" ry="18"/>
    <text font-size="12.8" style="fill: #000000;text-anchor:middle;font-family:monospace;font-style:normal;font-weight:normal" x="652.148" y="174.674">is_active</text>
  </g>
  <line style="fill: none; fill-opacity:0; stroke-width: 2; stroke: #000000" x1="617.457" y1="194.027" x2="626.61" y2="188.076"/>
  <g>
    <rect style="fill: #ffffff" x="1017.83" y="195.028" width="58.8" height="36"/>
    <rect style="fill: none; fill-opacity:0; stroke-width: 2; stroke: #000000" x="1017.83" y="195.028" width="58.8" height="36"/>
    <text font-size="12.8" style="fill: #000000;text-anchor:middle;font-family:monospace;font-style:normal;font-weight:normal" x="1047.23" y="216.228">Role</text>
  </g>
  <g>
    <ellipse style="fill: #ffffff" cx="1045.23" cy="164.955" rx="35.4" ry="18"/>
    <ellipse style="fill: none; fill-opacity:0; stroke-width: 2; stroke: #000000" cx="1045.23" cy="164.955" rx="35.4" ry="18"/>
    <text font-size="12.8" style="fill: #000000;text-anchor:middle;font-family:monospace;font-style:normal;font-weight:normal" x="1045.23" y="168.155">role</text>
    <line style="fill: none; fill-opacity:0; stroke-width: 2; stroke: #000000" x1="1029.83" y1="172.955" x2="1060.63" y2="172.955"/>
  </g>
  <line style="fill: none; fill-opacity:0; stroke-width: 2; stroke: #000000" x1="1046.44" y1="194.038" x2="1046.02" y2="183.945"/>
  <g>
    <rect style="fill: #ffffff" x="773.834" y="927.828" width="97.3" height="36"/>
    <rect style="fill: none; fill-opacity:0; stroke-width: 2; stroke: #000000" x="773.834" y="927.828" width="97.3" height="36"/>
    <text font-size="12.8" style="fill: #000000;text-anchor:middle;font-family:monospace;font-style:normal;font-weight:normal" x="822.484" y="949.028">Candidate</text>
  </g>
  <g>
    <ellipse style="fill: #ffffff" cx="616.686" cy="948.624" rx="66.2" ry="18"/>
    <ellipse style="fill: none; fill-opacity:0; stroke-width: 2; stroke: #000000" cx="616.686" cy="948.624" rx="66.2" ry="18"/>
    <text font-size="12.8" style="fill: #000000;text-anchor:middle;font-family:monospace;font-style:normal;font-weight:normal" x="616.686" y="951.824">candidate_id</text>
    <line style="fill: none; fill-opacity:0; stroke-width: 2; stroke: #000000" x1="570.486" y1="956.624" x2="662.886" y2="956.624"/>
  </g>
  <line style="fill: none; fill-opacity:0; stroke-width: 2; stroke: #000000" x1="683.611" y1="947.715" x2="772.831" y2="946.503"/>
  <g>
    <ellipse style="fill: #ffffff" cx="640.826" cy="992.658" rx="35.4" ry="18"/>
    <ellipse style="fill: none; fill-opacity:0; stroke-width: 2; stroke: #000000" cx="640.826" cy="992.658" rx="35.4" ry="18"/>
    <text font-size="12.8" style="fill: #000000;text-anchor:middle;font-family:monospace;font-style:normal;font-weight:normal" x="640.826" y="995.858">name</text>
  </g>
  <line style="fill: none; fill-opacity:0; stroke-width: 2; stroke: #000000" x1="673.335" y1="984.278" x2="772.829" y2="958.629"/>
  <g>
    <ellipse style="fill: #ffffff" cx="822.636" cy="1008.22" rx="27.7" ry="18"/>
    <ellipse style="fill: none; fill-opacity:0; stroke-width: 2; stroke: #000000" cx="822.636" cy="1008.22" rx="27.7" ry="18"/>
    <text font-size="12.8" style="fill: #000000;text-anchor:middle;font-family:monospace;font-style:normal;font-weight:normal" x="822.636" y="1011.42">cv</text>
  </g>
  <line style="fill: none; fill-opacity:0; stroke-width: 2; stroke: #000000" x1="822.59" y1="989.452" x2="822.53" y2="964.594"/>
  <g>
    <rect style="fill: #ffffff" x="1476.83" y="558.742" width="143.5" height="36"/>
    <rect style="fill: none; fill-opacity:0; stroke-width: 2; stroke: #000000" x="1476.83" y="558.742" width="143.5" height="36"/>
    <text font-size="12.8" style="fill: #000000;text-anchor:middle;font-family:monospace;font-style:normal;font-weight:normal" x="1548.58" y="579.942">Request_Profile</text>
  </g>
  <g>
    <ellipse style="fill: #ffffff" cx="1434.58" cy="618.954" rx="77.75" ry="18"/>
    <ellipse style="fill: none; fill-opacity:0; stroke-width: 2; stroke: #000000" cx="1434.58" cy="618.954" rx="77.75" ry="18"/>
    <text font-size="12.8" style="fill: #000000;text-anchor:middle;font-family:monospace;font-style:normal;font-weight:normal" x="1434.58" y="622.154">request_profile</text>
    <line style="fill: none; fill-opacity:0; stroke-width: 2; stroke: #000000" x1="1376.83" y1="626.954" x2="1492.33" y2="626.954"/>
  </g>
  <line style="fill: none; fill-opacity:0; stroke-width: 2; stroke: #000000" x1="1497.31" y1="595.725" x2="1476.73" y2="603.346"/>
  <g>
    <rect style="fill: #ffffff" x="773.674" y="183.955" width="97.3" height="58.38"/>
    <rect style="fill: none; fill-opacity:0; stroke-width: 2; stroke: #000000" x="773.674" y="183.955" width="97.3" height="58.38"/>
    <polygon style="fill: #ffffff" points="773.674,213.145 822.324,183.955 870.974,213.145 822.324,242.335 "/>
    <polygon style="fill: none; fill-opacity:0; stroke-width: 2; stroke: #000000" points="773.674,213.145 822.324,183.955 870.974,213.145 822.324,242.335 "/>
    <text font-size="12.8" style="fill: #000000;text-anchor:middle;font-family:monospace;font-style:normal;font-weight:normal" x="822.324" y="216.345">User_Role</text>
  </g>
  <polyline style="fill: none; fill-opacity:0; stroke-width: 2; stroke: #000000" points="618.635,213.028 695.652,213.028 695.652,213.145 772.668,213.145 "/>
  <polyline style="fill: none; fill-opacity:0; stroke-width: 2; stroke: #000000" points="871.98,213.145 944.4,213.145 944.4,213.028 1016.82,213.028 "/>
  <text font-size="12.8" style="fill: #000000;text-anchor:start;font-family:sans-serif;font-style:normal;font-weight:normal" x="747.828" y="207.954">
    <tspan x="747.828" y="207.954">N</tspan>
  </text>
  <text font-size="12.8" style="fill: #000000;text-anchor:start;font-family:sans-serif;font-style:normal;font-weight:normal" x="887.828" y="207.954">
    <tspan x="887.828" y="207.954">N</tspan>
  </text>
  <g>
    <rect style="fill: #ffffff" x="781.828" y="461.954" width="81.9" height="36"/>
    <rect style="fill: none; fill-opacity:0; stroke-width: 2; stroke: #000000" x="781.828" y="461.954" width="81.9" height="36"/>
    <text font-size="12.8" style="fill: #000000;text-anchor:middle;font-family:monospace;font-style:normal;font-weight:normal" x="822.778" y="483.154">Request</text>
  </g>
  <g>
    <polygon style="fill: #ffffff" points="802.162,335.954 822.162,323.954 842.162,335.954 822.162,347.954 "/>
    <polygon style="fill: none; fill-opacity:0; stroke-width: 2; stroke: #000000" points="802.162,335.954 822.162,323.954 842.162,335.954 822.162,347.954 "/>
    <text font-size="12.8" style="fill: #000000;text-anchor:start;font-family:monospace;font-style:normal;font-weight:normal" x="826.162" y="317.954">N</text>
    <text font-size="12.8" style="fill: #000000;text-anchor:start;font-family:monospace;font-style:normal;font-weight:normal" x="826.162" y="369.954">N</text>
    <text font-size="12.8" style="fill: #000000;text-anchor:middle;font-family:monospace;font-style:normal;font-weight:normal" x="822.162" y="339.154"></text>
  </g>
  <polyline style="fill: none; fill-opacity:0; stroke-width: 2; stroke: #000000" points="822.162,323.954 822.162,283.648 822.324,283.648 822.324,243.342 "/>
  <polyline style="fill: none; fill-opacity:0; stroke-width: 2; stroke: #000000" points="822.162,347.954 822.162,404.449 822.778,404.449 822.778,460.945 "/>
  <g>
    <rect style="fill: #ffffff" x="781.828" y="693.954" width="81.9" height="49.14"/>
    <rect style="fill: none; fill-opacity:0; stroke-width: 2; stroke: #000000" x="781.828" y="693.954" width="81.9" height="49.14"/>
    <polygon style="fill: #ffffff" points="781.828,718.524 822.778,693.954 863.728,718.524 822.778,743.094 "/>
    <polygon style="fill: none; fill-opacity:0; stroke-width: 2; stroke: #000000" points="781.828,718.524 822.778,693.954 863.728,718.524 822.778,743.094 "/>
    <text font-size="12.8" style="fill: #000000;text-anchor:middle;font-family:monospace;font-style:normal;font-weight:normal" x="822.778" y="721.724">Process</text>
  </g>
  <polyline style="fill: none; fill-opacity:0; stroke-width: 2; stroke: #000000" points="822.778,692.948 822.778,691.948 822.778,499.963 822.778,498.963 "/>
  <polyline style="fill: none; fill-opacity:0; stroke-width: 2; stroke: #000000" points="822.778,744.1 822.778,835.459 822.484,835.459 822.484,926.819 "/>
  <text font-size="12.8" style="fill: #000000;text-anchor:start;font-family:sans-serif;font-style:normal;font-weight:normal" x="832.592" y="685.282">
    <tspan x="832.592" y="685.282">N</tspan>
  </text>
  <g>
    <ellipse style="fill: #ffffff" cx="897.328" cy="310.954" rx="58.5" ry="18"/>
    <ellipse style="fill: none; fill-opacity:0; stroke-width: 2; stroke: #000000" cx="897.328" cy="310.954" rx="58.5" ry="18"/>
    <text font-size="12.8" style="fill: #000000;text-anchor:middle;font-family:monospace;font-style:normal;font-weight:normal" x="897.328" y="314.154">request_id</text>
    <line style="fill: none; fill-opacity:0; stroke-width: 2; stroke: #000000" x1="858.828" y1="318.954" x2="935.828" y2="318.954"/>
  </g>
  <g>
    <polygon style="fill: #ffffff" points="1246.83,479.954 1266.83,467.954 1286.83,479.954 1266.83,491.954 "/>
    <polygon style="fill: none; fill-opacity:0; stroke-width: 2; stroke: #000000" points="1246.83,479.954 1266.83,467.954 1286.83,479.954 1266.83,491.954 "/>
    <text font-size="12.8" style="fill: #000000;text-anchor:end;font-family:monospace;font-style:normal;font-weight:normal" x="1240.83" y="473.954">N</text>
    <text font-size="12.8" style="fill: #000000;text-anchor:start;font-family:monospace;font-style:normal;font-weight:normal" x="1292.83" y="473.954">1</text>
    <text font-size="12.8" style="fill: #000000;text-anchor:middle;font-family:monospace;font-style:normal;font-weight:normal" x="1266.83" y="483.154"></text>
  </g>
  <g>
    <polyline style="fill: none; fill-opacity:0; stroke-width: 2; stroke: #000000" points="864.733,477.454 870.733,477.454 1245.83,477.454 1246.83,477.454 "/>
    <polyline style="fill: none; fill-opacity:0; stroke-width: 2; stroke: #000000" points="864.733,482.454 865.733,482.454 1240.83,482.454 1246.83,482.454 "/>
  </g>
  <g>
    <polygon style="fill: #ffffff" points="1335.83,945.954 1355.83,933.954 1375.83,945.954 1355.83,957.954 "/>
    <polygon style="fill: none; fill-opacity:0; stroke-width: 2; stroke: #000000" points="1335.83,945.954 1355.83,933.954 1375.83,945.954 1355.83,957.954 "/>
    <text font-size="12.8" style="fill: #000000;text-anchor:end;font-family:monospace;font-style:normal;font-weight:normal" x="1329.83" y="939.954">N</text>
    <text font-size="12.8" style="fill: #000000;text-anchor:start;font-family:monospace;font-style:normal;font-weight:normal" x="1381.83" y="939.954">N</text>
    <text font-size="12.8" style="fill: #000000;text-anchor:middle;font-family:monospace;font-style:normal;font-weight:normal" x="1355.83" y="949.154"></text>
  </g>
  <polyline style="fill: none; fill-opacity:0; stroke-width: 2; stroke: #000000" points="872.14,945.828 1103.51,945.828 1103.51,945.954 1334.89,945.954 "/>
  <polyline style="fill: none; fill-opacity:0; stroke-width: 2; stroke: #000000" points="1376.82,945.954 1549.83,945.954 1549.83,594.742 1548.58,594.742 "/>
  <g>
    <rect style="fill: #ffffff" x="334.828" y="510.954" width="128.1" height="36"/>
    <rect style="fill: none; fill-opacity:0; stroke-width: 2; stroke: #000000" x="334.828" y="510.954" width="128.1" height="36"/>
    <text font-size="12.8" style="fill: #000000;text-anchor:middle;font-family:monospace;font-style:normal;font-weight:normal" x="398.878" y="532.154">Request_Skill</text>
  </g>
  <g>
    <polygon style="fill: #ffffff" points="597.828,479.954 617.828,467.954 637.828,479.954 617.828,491.954 "/>
    <polygon style="fill: none; fill-opacity:0; stroke-width: 2; stroke: #000000" points="597.828,479.954 617.828,467.954 637.828,479.954 617.828,491.954 "/>
    <text font-size="12.8" style="fill: #000000;text-anchor:end;font-family:monospace;font-style:normal;font-weight:normal" x="591.828" y="473.954">1</text>
    <text font-size="12.8" style="fill: #000000;text-anchor:start;font-family:monospace;font-style:normal;font-weight:normal" x="643.828" y="473.954">N</text>
    <text font-size="12.8" style="fill: #000000;text-anchor:middle;font-family:monospace;font-style:normal;font-weight:normal" x="617.828" y="483.154"></text>
  </g>
  <polyline style="fill: none; fill-opacity:0; stroke-width: 2; stroke: #000000" points="463.936,528.954 530.411,528.954 530.411,479.954 596.886,479.954 "/>
  <g>
    <polyline style="fill: none; fill-opacity:0; stroke-width: 2; stroke: #000000" points="638.77,477.454 639.77,477.454 774.823,477.454 780.823,477.454 "/>
    <polyline style="fill: none; fill-opacity:0; stroke-width: 2; stroke: #000000" points="638.77,482.454 644.77,482.454 779.823,482.454 780.823,482.454 "/>
  </g>
  <line style="fill: none; fill-opacity:0; stroke-width: 2; stroke: #000000" x1="831.155" y1="460.964" x2="889.06" y2="329.696"/>
  <g>
    <ellipse style="fill: #ffffff" cx="1160.18" cy="329.33" rx="62.35" ry="18"/>
    <ellipse style="fill: none; fill-opacity:0; stroke-width: 2; stroke: #000000" cx="1160.18" cy="329.33" rx="62.35" ry="18"/>
    <text font-size="12.8" style="fill: #000000;text-anchor:middle;font-family:monospace;font-style:normal;font-weight:normal" x="1160.18" y="332.53">description</text>
  </g>
  <line style="fill: none; fill-opacity:0; stroke-width: 2; stroke: #000000" x1="864.726" y1="461.227" x2="1125.41" y2="344.853"/>
  <g>
    <ellipse style="fill: #ffffff" cx="1162.63" cy="276.33" rx="50.8" ry="18"/>
    <ellipse style="fill: none; fill-opacity:0; stroke-width: 2; stroke: #000000" cx="1162.63" cy="276.33" rx="50.8" ry="18"/>
    <text font-size="12.8" style="fill: #000000;text-anchor:middle;font-family:monospace;font-style:normal;font-weight:normal" x="1162.63" y="279.53">quantity</text>
  </g>
  <line style="fill: none; fill-opacity:0; stroke-width: 2; stroke: #000000" x1="1135.99" y1="292.288" x2="854.494" y2="460.951"/>
  <g>
    <ellipse style="fill: #ffffff" cx="1156.03" cy="372.954" rx="66.2" ry="18"/>
    <ellipse style="fill: none; fill-opacity:0; stroke-width: 2; stroke: #000000" cx="1156.03" cy="372.954" rx="66.2" ry="18"/>
    <text font-size="12.8" style="fill: #000000;text-anchor:middle;font-family:monospace;font-style:normal;font-weight:normal" x="1156.03" y="376.154">request_date</text>
  </g>
  <line style="fill: none; fill-opacity:0; stroke-width: 2; stroke: #000000" x1="864.729" y1="466.484" x2="1112.29" y2="386.998"/>
  <g>
    <ellipse style="fill: #ffffff" cx="1152.18" cy="420.954" rx="62.35" ry="18"/>
    <ellipse style="fill: none; fill-opacity:0; stroke-width: 2; stroke: #000000" cx="1152.18" cy="420.954" rx="62.35" ry="18"/>
    <text font-size="12.8" style="fill: #000000;text-anchor:middle;font-family:monospace;font-style:normal;font-weight:normal" x="1152.18" y="424.154">target_date</text>
  </g>
  <line style="fill: none; fill-opacity:0; stroke-width: 2; stroke: #000000" x1="864.727" y1="472.44" x2="1098.21" y2="430.621"/>
  <g>
    <rect style="fill: #ffffff" x="1405.63" y="499.408" width="143.5" height="36"/>
    <rect style="fill: none; fill-opacity:0; stroke-width: 2; stroke: #000000" x="1405.63" y="499.408" width="143.5" height="36"/>
    <text font-size="12.8" style="fill: #000000;text-anchor:middle;font-family:monospace;font-style:normal;font-weight:normal" x="1477.38" y="520.608">Request_Project</text>
  </g>
  <g>
    <ellipse style="fill: #ffffff" cx="398.878" cy="586.954" rx="70.05" ry="18"/>
    <ellipse style="fill: none; fill-opacity:0; stroke-width: 2; stroke: #000000" cx="398.878" cy="586.954" rx="70.05" ry="18"/>
    <text font-size="12.8" style="fill: #000000;text-anchor:middle;font-family:monospace;font-style:normal;font-weight:normal" x="398.878" y="590.154">request_skill</text>
    <line style="fill: none; fill-opacity:0; stroke-width: 2; stroke: #000000" x1="348.828" y1="594.954" x2="448.928" y2="594.954"/>
  </g>
  <line style="fill: none; fill-opacity:0; stroke-width: 2; stroke: #000000" x1="398.878" y1="567.965" x2="398.878" y2="547.943"/>
  <g>
    <polygon style="fill: #ffffff" points="1245.21,516.954 1265.21,504.954 1285.21,516.954 1265.21,528.954 "/>
    <polygon style="fill: none; fill-opacity:0; stroke-width: 2; stroke: #000000" points="1245.21,516.954 1265.21,504.954 1285.21,516.954 1265.21,528.954 "/>
    <text font-size="12.8" style="fill: #000000;text-anchor:end;font-family:monospace;font-style:normal;font-weight:normal" x="1239.21" y="510.954">N</text>
    <text font-size="12.8" style="fill: #000000;text-anchor:start;font-family:monospace;font-style:normal;font-weight:normal" x="1291.21" y="510.954">1</text>
    <text font-size="12.8" style="fill: #000000;text-anchor:middle;font-family:monospace;font-style:normal;font-weight:normal" x="1265.21" y="520.154"></text>
  </g>
  <g>
    <polyline style="fill: none; fill-opacity:0; stroke-width: 2; stroke: #000000" points="825.278,498.94 825.278,516.454 1242.71,516.454 1242.71,516.954 "/>
    <polyline style="fill: none; fill-opacity:0; stroke-width: 2; stroke: #000000" points="820.278,498.94 820.278,521.454 1247.71,521.454 1247.71,516.954 "/>
  </g>
  <polyline style="fill: none; fill-opacity:0; stroke-width: 2; stroke: #000000" points="1285.21,516.954 1344.91,516.954 1344.91,517.408 1404.62,517.408 "/>
  <g>
    <ellipse style="fill: #ffffff" cx="1476.17" cy="451.828" rx="77.75" ry="18"/>
    <ellipse style="fill: none; fill-opacity:0; stroke-width: 2; stroke: #000000" cx="1476.17" cy="451.828" rx="77.75" ry="18"/>
    <text font-size="12.8" style="fill: #000000;text-anchor:middle;font-family:monospace;font-style:normal;font-weight:normal" x="1476.17" y="455.028">request_project</text>
    <line style="fill: none; fill-opacity:0; stroke-width: 2; stroke: #000000" x1="1418.42" y1="459.828" x2="1533.92" y2="459.828"/>
  </g>
  <line style="fill: none; fill-opacity:0; stroke-width: 2; stroke: #000000" x1="1476.52" y1="470.825" x2="1477.03" y2="498.411"/>
  <g>
    <ellipse style="fill: #ffffff" cx="1005.83" cy="268.954" rx="97" ry="18"/>
    <ellipse style="fill: none; fill-opacity:0; stroke-width: 2; stroke: #000000" cx="1005.83" cy="268.954" rx="97" ry="18"/>
    <text font-size="12.8" style="fill: #000000;text-anchor:middle;font-family:monospace;font-style:normal;font-weight:normal" x="1005.83" y="272.154">date_to_send_profile</text>
  </g>
  <line style="fill: none; fill-opacity:0; stroke-width: 2; stroke: #000000" x1="839.246" y1="460.971" x2="989.756" y2="287.48"/>
  <g>
    <ellipse style="fill: #ffffff" cx="1024.63" cy="322.954" rx="50.8" ry="18"/>
    <ellipse style="fill: none; fill-opacity:0; stroke-width: 2; stroke: #000000" cx="1024.63" cy="322.954" rx="50.8" ry="18"/>
    <text font-size="12.8" style="fill: #000000;text-anchor:middle;font-family:monospace;font-style:normal;font-weight:normal" x="1024.63" y="326.154">progress</text>
  </g>
  <line style="fill: none; fill-opacity:0; stroke-width: 2; stroke: #000000" x1="846.827" y1="461.249" x2="1002.78" y2="339.944"/>
  <g>
    <rect style="fill: #ffffff" x="1305.83" y="336.954" width="158.9" height="36"/>
    <rect style="fill: none; fill-opacity:0; stroke-width: 2; stroke: #000000" x="1305.83" y="336.954" width="158.9" height="36"/>
    <text font-size="12.8" style="fill: #000000;text-anchor:middle;font-family:monospace;font-style:normal;font-weight:normal" x="1385.28" y="358.154">Request_State_Csl</text>
  </g>
  <polyline style="fill: none; fill-opacity:0; stroke-width: 2; stroke: #000000" points="1286.83,479.954 1286.83,479.966 1385.28,479.966 1385.28,373.953 "/>
  <g>
    <ellipse style="fill: #ffffff" cx="1384.28" cy="305.954" rx="85.45" ry="18"/>
    <ellipse style="fill: none; fill-opacity:0; stroke-width: 2; stroke: #000000" cx="1384.28" cy="305.954" rx="85.45" ry="18"/>
    <text font-size="12.8" style="fill: #000000;text-anchor:middle;font-family:monospace;font-style:normal;font-weight:normal" x="1384.28" y="309.154">request_state_csl</text>
    <line style="fill: none; fill-opacity:0; stroke-width: 2; stroke: #000000" x1="1318.83" y1="313.954" x2="1449.73" y2="313.954"/>
  </g>
  <line style="fill: none; fill-opacity:0; stroke-width: 2; stroke: #000000" x1="1384.89" y1="335.951" x2="1384.67" y2="324.957"/>
  <g>
    <rect style="fill: #ffffff" x="331.828" y="430.954" width="128.1" height="36"/>
    <rect style="fill: none; fill-opacity:0; stroke-width: 2; stroke: #000000" x="331.828" y="430.954" width="128.1" height="36"/>
    <text font-size="12.8" style="fill: #000000;text-anchor:middle;font-family:monospace;font-style:normal;font-weight:normal" x="395.878" y="452.154">Request_State</text>
  </g>
  <g>
    <ellipse style="fill: #ffffff" cx="400.878" cy="391.704" rx="70.05" ry="18"/>
    <ellipse style="fill: none; fill-opacity:0; stroke-width: 2; stroke: #000000" cx="400.878" cy="391.704" rx="70.05" ry="18"/>
    <text font-size="12.8" style="fill: #000000;text-anchor:middle;font-family:monospace;font-style:normal;font-weight:normal" x="400.878" y="394.904">request_state</text>
    <line style="fill: none; fill-opacity:0; stroke-width: 2; stroke: #000000" x1="350.828" y1="399.704" x2="450.928" y2="399.704"/>
  </g>
  <line style="fill: none; fill-opacity:0; stroke-width: 2; stroke: #000000" x1="397.528" y1="430.057" x2="399.228" y2="410.601"/>
  <g>
    <rect style="fill: #ffffff" x="335.328" y="700.512" width="135.8" height="36"/>
    <rect style="fill: none; fill-opacity:0; stroke-width: 2; stroke: #000000" x="335.328" y="700.512" width="135.8" height="36"/>
    <text font-size="12.8" style="fill: #000000;text-anchor:middle;font-family:monospace;font-style:normal;font-weight:normal" x="403.228" y="721.712">Process_Status</text>
  </g>
  <g>
    <ellipse style="fill: #ffffff" cx="402.928" cy="773.434" rx="43.1" ry="18"/>
    <ellipse style="fill: none; fill-opacity:0; stroke-width: 2; stroke: #000000" cx="402.928" cy="773.434" rx="43.1" ry="18"/>
    <text font-size="12.8" style="fill: #000000;text-anchor:middle;font-family:monospace;font-style:normal;font-weight:normal" x="402.928" y="776.634">status</text>
    <line style="fill: none; fill-opacity:0; stroke-width: 2; stroke: #000000" x1="379.828" y1="781.434" x2="426.028" y2="781.434"/>
  </g>
  <line style="fill: none; fill-opacity:0; stroke-width: 2; stroke: #000000" x1="403.032" y1="754.434" x2="403.124" y2="737.512"/>
  <g>
    <polygon style="fill: #ffffff" points="570.028,718.84 590.028,706.84 610.028,718.84 590.028,730.84 "/>
    <polygon style="fill: none; fill-opacity:0; stroke-width: 2; stroke: #000000" points="570.028,718.84 590.028,706.84 610.028,718.84 590.028,730.84 "/>
    <text font-size="12.8" style="fill: #000000;text-anchor:end;font-family:monospace;font-style:normal;font-weight:normal" x="564.028" y="712.84">1</text>
    <text font-size="12.8" style="fill: #000000;text-anchor:start;font-family:monospace;font-style:normal;font-weight:normal" x="616.028" y="712.84">N</text>
    <text font-size="12.8" style="fill: #000000;text-anchor:middle;font-family:monospace;font-style:normal;font-weight:normal" x="590.028" y="722.04"></text>
  </g>
  <g>
    <polyline style="fill: none; fill-opacity:0; stroke-width: 2; stroke: #000000" points="610.028,716.34 692.925,716.34 692.925,716.024 780.823,716.024 "/>
    <polyline style="fill: none; fill-opacity:0; stroke-width: 2; stroke: #000000" points="610.028,721.34 697.925,721.34 697.925,721.024 780.823,721.024 "/>
  </g>
  <g>
    <ellipse style="fill: #ffffff" cx="706.632" cy="1034.17" rx="54.65" ry="18"/>
    <ellipse style="fill: none; fill-opacity:0; stroke-width: 2; stroke: #000000" cx="706.632" cy="1034.17" rx="54.65" ry="18"/>
    <text font-size="12.8" style="fill: #000000;text-anchor:middle;font-family:monospace;font-style:normal;font-weight:normal" x="706.632" y="1037.37">available</text>
  </g>
  <line style="fill: none; fill-opacity:0; stroke-width: 2; stroke: #000000" x1="797.58" y1="964.819" x2="729.097" y2="1017.04"/>
  <g>
    <polygon style="fill: #ffffff" points="1249.33,576.628 1269.33,564.628 1289.33,576.628 1269.33,588.628 "/>
    <polygon style="fill: none; fill-opacity:0; stroke-width: 2; stroke: #000000" points="1249.33,576.628 1269.33,564.628 1289.33,576.628 1269.33,588.628 "/>
    <text font-size="12.8" style="fill: #000000;text-anchor:end;font-family:monospace;font-style:normal;font-weight:normal" x="1243.33" y="570.628">N</text>
    <text font-size="12.8" style="fill: #000000;text-anchor:start;font-family:monospace;font-style:normal;font-weight:normal" x="1295.33" y="570.628">1</text>
    <text font-size="12.8" style="fill: #000000;text-anchor:middle;font-family:monospace;font-style:normal;font-weight:normal" x="1269.33" y="579.828"></text>
  </g>
  <g>
    <polyline style="fill: none; fill-opacity:0; stroke-width: 2; stroke: #000000" points="825.278,498.932 825.278,574.5 1246.83,574.5 1246.83,576.628 "/>
    <polyline style="fill: none; fill-opacity:0; stroke-width: 2; stroke: #000000" points="820.278,498.932 820.278,579.5 1251.83,579.5 1251.83,576.628 "/>
  </g>
  <g>
    <polygon style="fill: #ffffff" points="598.328,416.936 618.328,404.936 638.328,416.936 618.328,428.936 "/>
    <polygon style="fill: none; fill-opacity:0; stroke-width: 2; stroke: #000000" points="598.328,416.936 618.328,404.936 638.328,416.936 618.328,428.936 "/>
    <text font-size="12.8" style="fill: #000000;text-anchor:end;font-family:monospace;font-style:normal;font-weight:normal" x="592.328" y="410.936">1</text>
    <text font-size="12.8" style="fill: #000000;text-anchor:start;font-family:monospace;font-style:normal;font-weight:normal" x="644.328" y="410.936">N</text>
    <text font-size="12.8" style="fill: #000000;text-anchor:middle;font-family:monospace;font-style:normal;font-weight:normal" x="618.328" y="420.136"></text>
  </g>
  <g>
    <polyline style="fill: none; fill-opacity:0; stroke-width: 2; stroke: #000000" points="639.27,414.436 712.546,414.436 712.546,477.454 780.823,477.454 "/>
    <polyline style="fill: none; fill-opacity:0; stroke-width: 2; stroke: #000000" points="639.27,419.436 707.546,419.436 707.546,482.454 780.823,482.454 "/>
  </g>
  <polyline style="fill: none; fill-opacity:0; stroke-width: 2; stroke: #000000" points="597.386,416.936 529.161,416.936 529.161,448.954 460.936,448.954 "/>
  <polyline style="fill: none; fill-opacity:0; stroke-width: 2; stroke: #000000" points="570.028,718.84 521.082,718.84 521.082,718.512 472.136,718.512 "/>
  <g>
    <rect style="fill: #ffffff" x="1438.33" y="699.006" width="66.5" height="36"/>
    <rect style="fill: none; fill-opacity:0; stroke-width: 2; stroke: #000000" x="1438.33" y="699.006" width="66.5" height="36"/>
    <text font-size="12.8" style="fill: #000000;text-anchor:middle;font-family:monospace;font-style:normal;font-weight:normal" x="1471.58" y="720.206">Phase</text>
  </g>
  <g>
    <ellipse style="fill: #ffffff" cx="1388.58" cy="761.966" rx="39.25" ry="18"/>
    <ellipse style="fill: none; fill-opacity:0; stroke-width: 2; stroke: #000000" cx="1388.58" cy="761.966" rx="39.25" ry="18"/>
    <text font-size="12.8" style="fill: #000000;text-anchor:middle;font-family:monospace;font-style:normal;font-weight:normal" x="1388.58" y="765.166">phase</text>
    <line style="fill: none; fill-opacity:0; stroke-width: 2; stroke: #000000" x1="1369.33" y1="769.966" x2="1407.83" y2="769.966"/>
  </g>
  <line style="fill: none; fill-opacity:0; stroke-width: 2; stroke: #000000" x1="1414.81" y1="747.757" x2="1437.32" y2="735.562"/>
  <g>
    <rect style="fill: #ffffff" x="772.572" y="54" width="97.3" height="36"/>
    <rect style="fill: none; fill-opacity:0; stroke-width: 2; stroke: #000000" x="772.572" y="54" width="97.3" height="36"/>
    <text font-size="12.8" style="fill: #000000;text-anchor:middle;font-family:monospace;font-style:normal;font-weight:normal" x="821.222" y="75.2">Role_Type</text>
  </g>
  <g>
    <polygon style="fill: #ffffff" points="801.572,134 821.572,122 841.572,134 821.572,146 "/>
    <polygon style="fill: none; fill-opacity:0; stroke-width: 2; stroke: #000000" points="801.572,134 821.572,122 841.572,134 821.572,146 "/>
    <text font-size="12.8" style="fill: #000000;text-anchor:start;font-family:monospace;font-style:normal;font-weight:normal" x="825.572" y="116">1</text>
    <text font-size="12.8" style="fill: #000000;text-anchor:start;font-family:monospace;font-style:normal;font-weight:normal" x="825.572" y="168">N</text>
    <text font-size="12.8" style="fill: #000000;text-anchor:middle;font-family:monospace;font-style:normal;font-weight:normal" x="821.572" y="137.2"></text>
  </g>
  <g>
    <polyline style="fill: none; fill-opacity:0; stroke-width: 2; stroke: #000000" points="819.824,182.979 819.824,170.55 819.072,170.55 819.072,146.985 "/>
    <polyline style="fill: none; fill-opacity:0; stroke-width: 2; stroke: #000000" points="824.824,182.979 824.824,165.55 824.072,165.55 824.072,146.985 "/>
  </g>
  <polyline style="fill: none; fill-opacity:0; stroke-width: 2; stroke: #000000" points="821.572,121.003 821.572,106.006 821.222,106.006 821.222,91.0093 "/>
  <g>
    <ellipse style="fill: #ffffff" cx="966.222" cy="67.4926" rx="54.65" ry="18"/>
    <ellipse style="fill: none; fill-opacity:0; stroke-width: 2; stroke: #000000" cx="966.222" cy="67.4926" rx="54.65" ry="18"/>
    <text font-size="12.8" style="fill: #000000;text-anchor:middle;font-family:monospace;font-style:normal;font-weight:normal" x="966.222" y="70.6926">role_type</text>
    <line style="fill: none; fill-opacity:0; stroke-width: 2; stroke: #000000" x1="931.572" y1="75.4926" x2="1000.87" y2="75.4926"/>
  </g>
  <line style="fill: none; fill-opacity:0; stroke-width: 2; stroke: #000000" x1="870.871" y1="70.4566" x2="910.812" y2="69.2151"/>
  <g>
    <rect style="fill: #ffffff" x="369.828" y="303" width="151.2" height="36"/>
    <rect style="fill: none; fill-opacity:0; stroke-width: 2; stroke: #000000" x="369.828" y="303" width="151.2" height="36"/>
    <text font-size="12.8" style="fill: #000000;text-anchor:middle;font-family:monospace;font-style:normal;font-weight:normal" x="445.428" y="324.2">Request_Language</text>
  </g>
  <g>
    <polygon style="fill: #ffffff" points="598.828,321 618.828,309 638.828,321 618.828,333 "/>
    <polygon style="fill: none; fill-opacity:0; stroke-width: 2; stroke: #000000" points="598.828,321 618.828,309 638.828,321 618.828,333 "/>
    <text font-size="12.8" style="fill: #000000;text-anchor:end;font-family:monospace;font-style:normal;font-weight:normal" x="592.828" y="315">N</text>
    <text font-size="12.8" style="fill: #000000;text-anchor:start;font-family:monospace;font-style:normal;font-weight:normal" x="644.828" y="315">N</text>
    <text font-size="12.8" style="fill: #000000;text-anchor:middle;font-family:monospace;font-style:normal;font-weight:normal" x="618.828" y="324.2"></text>
  </g>
  <polyline style="fill: none; fill-opacity:0; stroke-width: 2; stroke: #000000" points="522.037,321 523.037,321 596.886,321 597.886,321 "/>
  <polyline style="fill: none; fill-opacity:0; stroke-width: 2; stroke: #000000" points="638.828,321 710.328,321 710.328,479.954 781.828,479.954 "/>
  <g>
    <ellipse style="fill: #ffffff" cx="448.628" cy="272" rx="50.8" ry="18"/>
    <ellipse style="fill: none; fill-opacity:0; stroke-width: 2; stroke: #000000" cx="448.628" cy="272" rx="50.8" ry="18"/>
    <text font-size="12.8" style="fill: #000000;text-anchor:middle;font-family:monospace;font-style:normal;font-weight:normal" x="448.628" y="275.2">language</text>
    <line style="fill: none; fill-opacity:0; stroke-width: 2; stroke: #000000" x1="417.828" y1="280" x2="479.428" y2="280"/>
  </g>
  <line style="fill: none; fill-opacity:0; stroke-width: 2; stroke: #000000" x1="446.669" y1="301.997" x2="447.389" y2="290.973"/>
  <text font-size="12.8" style="fill: #000000;text-anchor:start;font-family:sans-serif;font-style:normal;font-weight:normal" x="887.166" y="100.718">
    <tspan x="887.166" y="100.718">team leader/team worker/coordinator...</tspan>
  </text>
  <g>
    <ellipse style="fill: #ffffff" cx="622.328" cy="366" rx="58.5" ry="18"/>
    <ellipse style="fill: none; fill-opacity:0; stroke-width: 2; stroke: #000000" cx="622.328" cy="366" rx="58.5" ry="18"/>
    <text font-size="12.8" style="fill: #000000;text-anchor:middle;font-family:monospace;font-style:normal;font-weight:normal" x="622.328" y="369.2">yes/valued</text>
  </g>
  <line style="fill: none; fill-opacity:0; stroke-width: 2; stroke: #000000" x1="620.851" y1="347.005" x2="619.826" y2="333.832"/>
  <g>
    <ellipse style="fill: #ffffff" cx="590.028" cy="131" rx="66.2" ry="18"/>
    <ellipse style="fill: none; fill-opacity:0; stroke-width: 2; stroke: #000000" cx="590.028" cy="131" rx="66.2" ry="18"/>
    <text font-size="12.8" style="fill: #000000;text-anchor:middle;font-family:monospace;font-style:normal;font-weight:normal" x="590.028" y="134.2">last_sign_in</text>
  </g>
  <line style="fill: none; fill-opacity:0; stroke-width: 2; stroke: #000000" x1="588.645" y1="194.033" x2="589.611" y2="149.995"/>
  <polyline style="fill: none; fill-opacity:0; stroke-width: 2; stroke: #000000" points="1290.27,576.628 1383.04,576.628 1383.04,576.742 1475.82,576.742 "/>
  <g>
    <polygon style="fill: #ffffff" points="953.828,717 973.828,705 993.828,717 973.828,729 "/>
    <polygon style="fill: none; fill-opacity:0; stroke-width: 2; stroke: #000000" points="953.828,717 973.828,705 993.828,717 973.828,729 "/>
    <text font-size="12.8" style="fill: #000000;text-anchor:end;font-family:monospace;font-style:normal;font-weight:normal" x="947.828" y="711">N</text>
    <text font-size="12.8" style="fill: #000000;text-anchor:start;font-family:monospace;font-style:normal;font-weight:normal" x="999.828" y="711">1</text>
    <text font-size="12.8" style="fill: #000000;text-anchor:middle;font-family:monospace;font-style:normal;font-weight:normal" x="973.828" y="720.2"></text>
  </g>
  <g>
    <rect style="fill: #ffffff" x="1063.83" y="699" width="89.6" height="36"/>
    <rect style="fill: none; fill-opacity:0; stroke-width: 2; stroke: #000000" x="1063.83" y="699" width="89.6" height="36"/>
    <text font-size="12.8" style="fill: #000000;text-anchor:middle;font-family:monospace;font-style:normal;font-weight:normal" x="1108.63" y="720.2">Workflow</text>
  </g>
  <g>
    <polyline style="fill: none; fill-opacity:0; stroke-width: 2; stroke: #000000" points="864.733,477.454 911.31,477.454 911.31,714.5 952.886,714.5 "/>
    <polyline style="fill: none; fill-opacity:0; stroke-width: 2; stroke: #000000" points="864.733,482.454 906.31,482.454 906.31,719.5 952.886,719.5 "/>
  </g>
  <polyline style="fill: none; fill-opacity:0; stroke-width: 2; stroke: #000000" points="994.77,717 995.77,717 1061.82,717 1062.82,717 "/>
  <text font-size="12.8" style="fill: #000000;text-anchor:start;font-family:sans-serif;font-style:normal;font-weight:normal" x="832.828" y="762">
    <tspan x="832.828" y="762">N</tspan>
  </text>
  <polyline style="fill: none; fill-opacity:0; stroke-width: 2; stroke: #000000" points="1154.43,717 1155.43,717 1274.39,717 1275.39,717 "/>
  <g>
    <ellipse style="fill: #ffffff" cx="1202.03" cy="664" rx="66.2" ry="18"/>
    <ellipse style="fill: none; fill-opacity:0; stroke-width: 2; stroke: #000000" cx="1202.03" cy="664" rx="66.2" ry="18"/>
    <text font-size="12.8" style="fill: #000000;text-anchor:middle;font-family:monospace;font-style:normal;font-weight:normal" x="1202.03" y="667.2">phase_number</text>
  </g>
  <g>
    <ellipse style="fill: #ffffff" cx="1021.63" cy="662" rx="50.8" ry="18"/>
    <ellipse style="fill: none; fill-opacity:0; stroke-width: 2; stroke: #000000" cx="1021.63" cy="662" rx="50.8" ry="18"/>
    <text font-size="12.8" style="fill: #000000;text-anchor:middle;font-family:monospace;font-style:normal;font-weight:normal" x="1021.63" y="665.2">workflow</text>
    <line style="fill: none; fill-opacity:0; stroke-width: 2; stroke: #000000" x1="990.828" y1="670" x2="1052.43" y2="670"/>
  </g>
  <line style="fill: none; fill-opacity:0; stroke-width: 2; stroke: #000000" x1="1047.31" y1="678.237" x2="1078.64" y2="698.04"/>
  <line style="fill: none; fill-opacity:0; stroke-width: 2; stroke: #000000" x1="1024.98" y1="872.734" x2="1087.58" y2="851.431"/>
  <g>
    <ellipse style="fill: #ffffff" cx="984.828" cy="886.4" rx="58.5" ry="18"/>
    <ellipse style="fill: none; fill-opacity:0; stroke-width: 2; stroke: #000000" cx="984.828" cy="886.4" rx="58.5" ry="18"/>
    <text font-size="12.8" style="fill: #000000;text-anchor:middle;font-family:monospace;font-style:normal;font-weight:normal" x="984.828" y="889.6">phase_date</text>
  </g>
  <g>
    <ellipse style="fill: #ffffff" cx="1108.08" cy="889" rx="39.25" ry="18"/>
    <ellipse style="fill: none; fill-opacity:0; stroke-width: 2; stroke: #000000" cx="1108.08" cy="889" rx="39.25" ry="18"/>
    <text font-size="12.8" style="fill: #000000;text-anchor:middle;font-family:monospace;font-style:normal;font-weight:normal" x="1108.08" y="892.2">notes</text>
  </g>
  <line style="fill: none; fill-opacity:0; stroke-width: 2; stroke: #000000" x1="1108.3" y1="869.993" x2="1108.44" y2="857.252"/>
  <g>
    <ellipse style="fill: #ffffff" cx="919.158" cy="1033.87" rx="66.2" ry="18"/>
    <ellipse style="fill: none; fill-opacity:0; stroke-width: 2; stroke: #000000" cx="919.158" cy="1033.87" rx="66.2" ry="18"/>
    <text font-size="12.8" style="fill: #000000;text-anchor:middle;font-family:monospace;font-style:normal;font-weight:normal" x="919.158" y="1037.07">profile_info</text>
  </g>
  <line style="fill: none; fill-opacity:0; stroke-width: 2; stroke: #000000" x1="899.497" y1="1015.96" x2="843.301" y2="964.785"/>
  <g>
    <rect style="fill: #ffffff" x="457.83" y="860.79" width="166.6" height="36"/>
    <rect style="fill: none; fill-opacity:0; stroke-width: 2; stroke: #000000" x="457.83" y="860.79" width="166.6" height="36"/>
    <text font-size="12.8" style="fill: #000000;text-anchor:middle;font-family:monospace;font-style:normal;font-weight:normal" x="541.13" y="881.99">Unavailable_Reason</text>
  </g>
  <g>
    <ellipse style="fill: #ffffff" cx="489.218" cy="830.402" rx="43.1" ry="18"/>
    <ellipse style="fill: none; fill-opacity:0; stroke-width: 2; stroke: #000000" cx="489.218" cy="830.402" rx="43.1" ry="18"/>
    <text font-size="12.8" style="fill: #000000;text-anchor:middle;font-family:monospace;font-style:normal;font-weight:normal" x="489.218" y="833.602">reason</text>
    <line style="fill: none; fill-opacity:0; stroke-width: 2; stroke: #000000" x1="466.118" y1="838.402" x2="512.318" y2="838.402"/>
  </g>
  <line style="fill: none; fill-opacity:0; stroke-width: 2; stroke: #000000" x1="520.738" y1="859.782" x2="507.576" y2="847.514"/>
  <g>
    <polygon style="fill: #ffffff" points="644.83,787.79 664.83,775.79 684.83,787.79 664.83,799.79 "/>
    <polygon style="fill: none; fill-opacity:0; stroke-width: 2; stroke: #000000" points="644.83,787.79 664.83,775.79 684.83,787.79 664.83,799.79 "/>
    <text font-size="12.8" style="fill: #000000;text-anchor:end;font-family:monospace;font-style:normal;font-weight:normal" x="638.83" y="781.79">1</text>
    <text font-size="12.8" style="fill: #000000;text-anchor:start;font-family:monospace;font-style:normal;font-weight:normal" x="690.83" y="781.79">N</text>
    <text font-size="12.8" style="fill: #000000;text-anchor:middle;font-family:monospace;font-style:normal;font-weight:normal" x="664.83" y="790.99"></text>
  </g>
  <polyline style="fill: none; fill-opacity:0; stroke-width: 2; stroke: #000000" points="780.823,718.524 733.297,718.524 733.297,787.79 685.772,787.79 "/>
  <polyline style="fill: none; fill-opacity:0; stroke-width: 2; stroke: #000000" points="644.83,787.79 644.83,789.79 541.13,789.79 541.13,859.788 "/>
  <polyline style="fill: none; fill-opacity:0; stroke-width: 2; stroke: #000000" points="1316.33,717 1376.82,717 1376.82,717.006 1437.32,717.006 "/>
  <g>
    <polygon style="fill: #ffffff" points="1088.59,844.282 1108.59,832.282 1128.59,844.282 1108.59,856.282 "/>
    <polygon style="fill: none; fill-opacity:0; stroke-width: 2; stroke: #000000" points="1088.59,844.282 1108.59,832.282 1128.59,844.282 1108.59,856.282 "/>
    <text font-size="12.8" style="fill: #000000;text-anchor:end;font-family:monospace;font-style:normal;font-weight:normal" x="1082.59" y="838.282">N</text>
    <text font-size="12.8" style="fill: #000000;text-anchor:start;font-family:monospace;font-style:normal;font-weight:normal" x="1134.59" y="838.282">N</text>
    <text font-size="12.8" style="fill: #000000;text-anchor:middle;font-family:monospace;font-style:normal;font-weight:normal" x="1108.59" y="847.482"></text>
  </g>
  <polyline style="fill: none; fill-opacity:0; stroke-width: 2; stroke: #000000" points="848.592,746.282 848.592,845.282 1088.59,845.282 1088.59,844.282 "/>
  <polyline style="fill: none; fill-opacity:0; stroke-width: 2; stroke: #000000" points="1128.59,844.282 1128.59,846.282 1471.58,846.282 1471.58,735.974 "/>
  <line style="fill: none; fill-opacity:0; stroke-width: 2; stroke: #000000" x1="1231.58" y1="680.716" x2="1306.33" y2="723"/>
  <g>
    <ellipse style="fill: #ffffff" cx="1372.43" cy="669" rx="81.6" ry="18"/>
    <ellipse style="fill: none; fill-opacity:0; stroke-width: 2; stroke: #000000" cx="1372.43" cy="669" rx="81.6" ry="18"/>
    <text font-size="12.8" style="fill: #000000;text-anchor:middle;font-family:monospace;font-style:normal;font-weight:normal" x="1372.43" y="672.2">phase_attributes</text>
  </g>
  <line style="fill: none; fill-opacity:0; stroke-width: 2; stroke: #000000" x1="1407.15" y1="685.813" x2="1437.34" y2="700.428"/>
  <g>
    <ellipse style="fill: #ffffff" cx="1228.33" cy="885" rx="58.5" ry="18"/>
    <ellipse style="fill: none; fill-opacity:0; stroke-width: 2; stroke: #000000" cx="1228.33" cy="885" rx="58.5" ry="18"/>
    <text font-size="12.8" style="fill: #000000;text-anchor:middle;font-family:monospace;font-style:normal;font-weight:normal" x="1228.33" y="888.2">attributes</text>
  </g>
  <line style="fill: none; fill-opacity:0; stroke-width: 2; stroke: #000000" x1="1129.6" y1="851.425" x2="1188.13" y2="871.329"/>
  <g>
    <polygon style="fill: #ffffff" points="1276.33,717 1296.33,705 1316.33,717 1296.33,729 "/>
    <polygon style="fill: none; fill-opacity:0; stroke-width: 2; stroke: #000000" points="1276.33,717 1296.33,705 1316.33,717 1296.33,729 "/>
    <text font-size="12.7998" style="fill: #000000;text-anchor:end;font-family:monospace;font-style:normal;font-weight:normal" x="1270.33" y="711">N</text>
    <text font-size="12.7998" style="fill: #000000;text-anchor:start;font-family:monospace;font-style:normal;font-weight:normal" x="1322.33" y="711">N</text>
    <text font-size="12.7998" style="fill: #000000;text-anchor:middle;font-family:monospace;font-style:normal;font-weight:normal" x="1296.33" y="721"></text>
  </g>
</svg>
