<?xml version="1.0" encoding="UTF-8" standalone="no"?>
<!DOCTYPE svg PUBLIC "-//W3C//DTD SVG 1.0//EN" "http://www.w3.org/TR/2001/PR-SVG-20010719/DTD/svg10.dtd">
<svg width="80cm" height="51cm" viewBox="124 61 1590 1003" xmlns="http://www.w3.org/2000/svg" xmlns:xlink="http://www.w3.org/1999/xlink">
  <g>
    <rect style="fill: #ffffff" x="364.5" y="199.936" width="58.8" height="36"/>
    <rect style="fill: none; fill-opacity:0; stroke-width: 2; stroke: #000000" x="364.5" y="199.936" width="58.8" height="36"/>
    <text font-size="12.8" style="fill: #000000;text-anchor:middle;font-family:monospace;font-style:normal;font-weight:normal" x="393.9" y="221.136">User</text>
  </g>
  <g>
    <ellipse style="fill: #ffffff" cx="248.02" cy="219.256" rx="46.95" ry="18"/>
    <ellipse style="fill: none; fill-opacity:0; stroke-width: 2; stroke: #000000" cx="248.02" cy="219.256" rx="46.95" ry="18"/>
    <text font-size="12.8" style="fill: #000000;text-anchor:middle;font-family:monospace;font-style:normal;font-weight:normal" x="248.02" y="222.456">user_id</text>
    <line style="fill: none; fill-opacity:0; stroke-width: 2; stroke: #000000" x1="221.07" y1="227.256" x2="274.97" y2="227.256"/>
  </g>
  <line style="fill: none; fill-opacity:0; stroke-width: 2; stroke: #000000" x1="295.922" y1="218.823" x2="363.52" y2="218.211"/>
  <g>
    <ellipse style="fill: #ffffff" cx="395.82" cy="135.381" rx="54.65" ry="18"/>
    <ellipse style="fill: none; fill-opacity:0; stroke-width: 2; stroke: #000000" cx="395.82" cy="135.381" rx="54.65" ry="18"/>
    <text font-size="12.8" style="fill: #000000;text-anchor:middle;font-family:monospace;font-style:normal;font-weight:normal" x="395.82" y="138.581">is_active</text>
  </g>
  <line style="fill: none; fill-opacity:0; stroke-width: 2; stroke: #000000" x1="394.342" y1="198.94" x2="395.378" y2="154.377"/>
  <g>
    <rect style="fill: #ffffff" x="829.5" y="199.936" width="58.8" height="36"/>
    <rect style="fill: none; fill-opacity:0; stroke-width: 2; stroke: #000000" x="829.5" y="199.936" width="58.8" height="36"/>
    <text font-size="12.8" style="fill: #000000;text-anchor:middle;font-family:monospace;font-style:normal;font-weight:normal" x="858.9" y="221.136">Role</text>
  </g>
  <g>
    <ellipse style="fill: #ffffff" cx="861.45" cy="159.862" rx="46.95" ry="18"/>
    <ellipse style="fill: none; fill-opacity:0; stroke-width: 2; stroke: #000000" cx="861.45" cy="159.862" rx="46.95" ry="18"/>
    <text font-size="12.8" style="fill: #000000;text-anchor:middle;font-family:monospace;font-style:normal;font-weight:normal" x="861.45" y="163.062">role_id</text>
    <line style="fill: none; fill-opacity:0; stroke-width: 2; stroke: #000000" x1="834.5" y1="167.862" x2="888.4" y2="167.862"/>
  </g>
  <line style="fill: none; fill-opacity:0; stroke-width: 2; stroke: #000000" x1="859.735" y1="198.93" x2="860.617" y2="178.833"/>
  <g>
    <rect style="fill: #ffffff" x="579.506" y="943.736" width="97.3" height="36"/>
    <rect style="fill: none; fill-opacity:0; stroke-width: 2; stroke: #000000" x="579.506" y="943.736" width="97.3" height="36"/>
    <text font-size="12.8" style="fill: #000000;text-anchor:middle;font-family:monospace;font-style:normal;font-weight:normal" x="628.156" y="964.936">Candidate</text>
  </g>
  <g>
    <ellipse style="fill: #ffffff" cx="426.358" cy="1002.53" rx="66.2" ry="18"/>
    <ellipse style="fill: none; fill-opacity:0; stroke-width: 2; stroke: #000000" cx="426.358" cy="1002.53" rx="66.2" ry="18"/>
    <text font-size="12.8" style="fill: #000000;text-anchor:middle;font-family:monospace;font-style:normal;font-weight:normal" x="426.358" y="1005.73">candidate_id</text>
    <line style="fill: none; fill-opacity:0; stroke-width: 2; stroke: #000000" x1="380.158" y1="1010.53" x2="472.558" y2="1010.53"/>
  </g>
  <line style="fill: none; fill-opacity:0; stroke-width: 2; stroke: #000000" x1="480.466" y1="991.593" x2="578.889" y2="971.696"/>
  <g>
    <ellipse style="fill: #ffffff" cx="492.498" cy="1042.57" rx="35.4" ry="18"/>
    <ellipse style="fill: none; fill-opacity:0; stroke-width: 2; stroke: #000000" cx="492.498" cy="1042.57" rx="35.4" ry="18"/>
    <text font-size="12.8" style="fill: #000000;text-anchor:middle;font-family:monospace;font-style:normal;font-weight:normal" x="492.498" y="1045.77">name</text>
  </g>
  <line style="fill: none; fill-opacity:0; stroke-width: 2; stroke: #000000" x1="516.079" y1="1028.52" x2="596.278" y2="980.73"/>
  <g>
    <ellipse style="fill: #ffffff" cx="697.308" cy="1037.13" rx="27.7" ry="18"/>
    <ellipse style="fill: none; fill-opacity:0; stroke-width: 2; stroke: #000000" cx="697.308" cy="1037.13" rx="27.7" ry="18"/>
    <text font-size="12.8" style="fill: #000000;text-anchor:middle;font-family:monospace;font-style:normal;font-weight:normal" x="697.308" y="1040.33">cv</text>
  </g>
  <line style="fill: none; fill-opacity:0; stroke-width: 2; stroke: #000000" x1="682.447" y1="1020.92" x2="645.588" y2="980.74"/>
  <g>
    <rect style="fill: #ffffff" x="1569.5" y="574.65" width="143.5" height="36"/>
    <rect style="fill: none; fill-opacity:0; stroke-width: 2; stroke: #000000" x="1569.5" y="574.65" width="143.5" height="36"/>
    <text font-size="12.8" style="fill: #000000;text-anchor:middle;font-family:monospace;font-style:normal;font-weight:normal" x="1641.25" y="595.85">Request_Profile</text>
  </g>
  <g>
    <ellipse style="fill: #ffffff" cx="1520.25" cy="542.862" rx="77.75" ry="18"/>
    <ellipse style="fill: none; fill-opacity:0; stroke-width: 2; stroke: #000000" cx="1520.25" cy="542.862" rx="77.75" ry="18"/>
    <text font-size="12.8" style="fill: #000000;text-anchor:middle;font-family:monospace;font-style:normal;font-weight:normal" x="1520.25" y="546.062">request_profile</text>
    <line style="fill: none; fill-opacity:0; stroke-width: 2; stroke: #000000" x1="1462.5" y1="550.862" x2="1578" y2="550.862"/>
  </g>
  <line style="fill: none; fill-opacity:0; stroke-width: 2; stroke: #000000" x1="1595.11" y1="573.663" x2="1559.27" y2="558.919"/>
  <g>
    <rect style="fill: #ffffff" x="580.346" y="188.862" width="97.3" height="58.38"/>
    <rect style="fill: none; fill-opacity:0; stroke-width: 2; stroke: #000000" x="580.346" y="188.862" width="97.3" height="58.38"/>
    <polygon style="fill: #ffffff" points="580.346,218.052 628.996,188.862 677.646,218.052 628.996,247.242 "/>
    <polygon style="fill: none; fill-opacity:0; stroke-width: 2; stroke: #000000" points="580.346,218.052 628.996,188.862 677.646,218.052 628.996,247.242 "/>
    <text font-size="12.8" style="fill: #000000;text-anchor:middle;font-family:monospace;font-style:normal;font-weight:normal" x="628.996" y="221.252">User_Role</text>
  </g>
  <polyline style="fill: none; fill-opacity:0; stroke-width: 2; stroke: #000000" points="424.307,217.936 501.824,217.936 501.824,218.052 579.34,218.052 "/>
  <polyline style="fill: none; fill-opacity:0; stroke-width: 2; stroke: #000000" points="678.652,218.052 753.572,218.052 753.572,217.936 828.493,217.936 "/>
  <text font-size="12.8" style="fill: #000000;text-anchor:start;font-family:sans-serif;font-style:normal;font-weight:normal" x="553.5" y="229.862">
    <tspan x="553.5" y="229.862">N</tspan>
  </text>
  <text font-size="12.8" style="fill: #000000;text-anchor:start;font-family:sans-serif;font-style:normal;font-weight:normal" x="693.5" y="229.862">
    <tspan x="693.5" y="229.862">N</tspan>
  </text>
  <g>
    <rect style="fill: #ffffff" x="587.5" y="477.862" width="81.9" height="36"/>
    <rect style="fill: none; fill-opacity:0; stroke-width: 2; stroke: #000000" x="587.5" y="477.862" width="81.9" height="36"/>
    <text font-size="12.8" style="fill: #000000;text-anchor:middle;font-family:monospace;font-style:normal;font-weight:normal" x="628.45" y="499.062">Request</text>
  </g>
  <g>
    <polygon style="fill: #ffffff" points="608.834,351.862 628.834,339.862 648.834,351.862 628.834,363.862 "/>
    <polygon style="fill: none; fill-opacity:0; stroke-width: 2; stroke: #000000" points="608.834,351.862 628.834,339.862 648.834,351.862 628.834,363.862 "/>
    <text font-size="12.8" style="fill: #000000;text-anchor:start;font-family:monospace;font-style:normal;font-weight:normal" x="632.834" y="333.862">N</text>
    <text font-size="12.8" style="fill: #000000;text-anchor:start;font-family:monospace;font-style:normal;font-weight:normal" x="632.834" y="385.862">N</text>
    <text font-size="12.8" style="fill: #000000;text-anchor:middle;font-family:monospace;font-style:normal;font-weight:normal" x="628.834" y="355.062"></text>
  </g>
  <polyline style="fill: none; fill-opacity:0; stroke-width: 2; stroke: #000000" points="628.834,339.862 628.834,294.056 628.996,294.056 628.996,248.25 "/>
  <polyline style="fill: none; fill-opacity:0; stroke-width: 2; stroke: #000000" points="628.834,363.862 628.834,420.357 628.45,420.357 628.45,476.853 "/>
  <g>
    <rect style="fill: #ffffff" x="587.5" y="709.862" width="81.9" height="49.14"/>
    <rect style="fill: none; fill-opacity:0; stroke-width: 2; stroke: #000000" x="587.5" y="709.862" width="81.9" height="49.14"/>
    <polygon style="fill: #ffffff" points="587.5,734.432 628.45,709.862 669.4,734.432 628.45,759.002 "/>
    <polygon style="fill: none; fill-opacity:0; stroke-width: 2; stroke: #000000" points="587.5,734.432 628.45,709.862 669.4,734.432 628.45,759.002 "/>
    <text font-size="12.8" style="fill: #000000;text-anchor:middle;font-family:monospace;font-style:normal;font-weight:normal" x="628.45" y="737.632">Process</text>
  </g>
  <polyline style="fill: none; fill-opacity:0; stroke-width: 2; stroke: #000000" points="628.45,708.856 628.45,707.856 628.45,515.871 628.45,514.871 "/>
  <polyline style="fill: none; fill-opacity:0; stroke-width: 2; stroke: #000000" points="628.45,759.002 628.45,850.864 628.156,850.864 628.156,942.727 "/>
  <text font-size="12.8" style="fill: #000000;text-anchor:start;font-family:sans-serif;font-style:normal;font-weight:normal" x="604.264" y="700.19">
    <tspan x="604.264" y="700.19">N</tspan>
  </text>
  <g>
    <ellipse style="fill: #ffffff" cx="703" cy="326.862" rx="58.5" ry="18"/>
    <ellipse style="fill: none; fill-opacity:0; stroke-width: 2; stroke: #000000" cx="703" cy="326.862" rx="58.5" ry="18"/>
    <text font-size="12.8" style="fill: #000000;text-anchor:middle;font-family:monospace;font-style:normal;font-weight:normal" x="703" y="330.062">request_id</text>
    <line style="fill: none; fill-opacity:0; stroke-width: 2; stroke: #000000" x1="664.5" y1="334.862" x2="741.5" y2="334.862"/>
  </g>
  <g>
    <polygon style="fill: #ffffff" points="1052.5,495.862 1072.5,483.862 1092.5,495.862 1072.5,507.862 "/>
    <polygon style="fill: none; fill-opacity:0; stroke-width: 2; stroke: #000000" points="1052.5,495.862 1072.5,483.862 1092.5,495.862 1072.5,507.862 "/>
    <text font-size="12.8" style="fill: #000000;text-anchor:end;font-family:monospace;font-style:normal;font-weight:normal" x="1046.5" y="489.862">N</text>
    <text font-size="12.8" style="fill: #000000;text-anchor:start;font-family:monospace;font-style:normal;font-weight:normal" x="1098.5" y="489.862">1</text>
    <text font-size="12.8" style="fill: #000000;text-anchor:middle;font-family:monospace;font-style:normal;font-weight:normal" x="1072.5" y="499.062"></text>
  </g>
  <g>
    <polyline style="fill: none; fill-opacity:0; stroke-width: 2; stroke: #000000" points="670.405,493.362 676.405,493.362 1051.5,493.362 1052.5,493.362 "/>
    <polyline style="fill: none; fill-opacity:0; stroke-width: 2; stroke: #000000" points="670.405,498.362 671.405,498.362 1046.5,498.362 1052.5,498.362 "/>
  </g>
  <g>
    <polygon style="fill: #ffffff" points="1141.5,961.862 1161.5,949.862 1181.5,961.862 1161.5,973.862 "/>
    <polygon style="fill: none; fill-opacity:0; stroke-width: 2; stroke: #000000" points="1141.5,961.862 1161.5,949.862 1181.5,961.862 1161.5,973.862 "/>
    <text font-size="12.8" style="fill: #000000;text-anchor:end;font-family:monospace;font-style:normal;font-weight:normal" x="1135.5" y="955.862">N</text>
    <text font-size="12.8" style="fill: #000000;text-anchor:start;font-family:monospace;font-style:normal;font-weight:normal" x="1187.5" y="955.862">N</text>
    <text font-size="12.8" style="fill: #000000;text-anchor:middle;font-family:monospace;font-style:normal;font-weight:normal" x="1161.5" y="965.062"></text>
  </g>
  <polyline style="fill: none; fill-opacity:0; stroke-width: 2; stroke: #000000" points="677.812,961.736 909.185,961.736 909.185,961.862 1140.56,961.862 "/>
  <polyline style="fill: none; fill-opacity:0; stroke-width: 2; stroke: #000000" points="1181.5,961.862 1181.5,963 1641.25,963 1641.25,610.65 "/>
  <g>
    <rect style="fill: #ffffff" x="140.5" y="526.862" width="128.1" height="36"/>
    <rect style="fill: none; fill-opacity:0; stroke-width: 2; stroke: #000000" x="140.5" y="526.862" width="128.1" height="36"/>
    <text font-size="12.8" style="fill: #000000;text-anchor:middle;font-family:monospace;font-style:normal;font-weight:normal" x="204.55" y="548.062">Request_Skill</text>
  </g>
  <g>
    <polygon style="fill: #ffffff" points="403.5,495.862 423.5,483.862 443.5,495.862 423.5,507.862 "/>
    <polygon style="fill: none; fill-opacity:0; stroke-width: 2; stroke: #000000" points="403.5,495.862 423.5,483.862 443.5,495.862 423.5,507.862 "/>
    <text font-size="12.8" style="fill: #000000;text-anchor:end;font-family:monospace;font-style:normal;font-weight:normal" x="397.5" y="489.862">1</text>
    <text font-size="12.8" style="fill: #000000;text-anchor:start;font-family:monospace;font-style:normal;font-weight:normal" x="449.5" y="489.862">N</text>
    <text font-size="12.8" style="fill: #000000;text-anchor:middle;font-family:monospace;font-style:normal;font-weight:normal" x="423.5" y="499.062"></text>
  </g>
  <polyline style="fill: none; fill-opacity:0; stroke-width: 2; stroke: #000000" points="269.608,544.862 336.083,544.862 336.083,495.862 402.558,495.862 "/>
  <g>
    <polyline style="fill: none; fill-opacity:0; stroke-width: 2; stroke: #000000" points="444.442,493.362 445.442,493.362 580.495,493.362 586.495,493.362 "/>
    <polyline style="fill: none; fill-opacity:0; stroke-width: 2; stroke: #000000" points="444.442,498.362 450.442,498.362 585.495,498.362 586.495,498.362 "/>
  </g>
  <line style="fill: none; fill-opacity:0; stroke-width: 2; stroke: #000000" x1="636.827" y1="476.872" x2="694.732" y2="345.604"/>
  <g>
    <ellipse style="fill: #ffffff" cx="965.85" cy="345.238" rx="62.35" ry="18"/>
    <ellipse style="fill: none; fill-opacity:0; stroke-width: 2; stroke: #000000" cx="965.85" cy="345.238" rx="62.35" ry="18"/>
    <text font-size="12.8" style="fill: #000000;text-anchor:middle;font-family:monospace;font-style:normal;font-weight:normal" x="965.85" y="348.438">description</text>
  </g>
  <line style="fill: none; fill-opacity:0; stroke-width: 2; stroke: #000000" x1="670.398" y1="477.135" x2="931.078" y2="360.761"/>
  <g>
    <ellipse style="fill: #ffffff" cx="962.3" cy="298.238" rx="50.8" ry="18"/>
    <ellipse style="fill: none; fill-opacity:0; stroke-width: 2; stroke: #000000" cx="962.3" cy="298.238" rx="50.8" ry="18"/>
    <text font-size="12.8" style="fill: #000000;text-anchor:middle;font-family:monospace;font-style:normal;font-weight:normal" x="962.3" y="301.438">quantity</text>
  </g>
  <line style="fill: none; fill-opacity:0; stroke-width: 2; stroke: #000000" x1="935.352" y1="314.19" x2="660.482" y2="476.901"/>
  <g>
    <ellipse style="fill: #ffffff" cx="961.7" cy="388.862" rx="66.2" ry="18"/>
    <ellipse style="fill: none; fill-opacity:0; stroke-width: 2; stroke: #000000" cx="961.7" cy="388.862" rx="66.2" ry="18"/>
    <text font-size="12.8" style="fill: #000000;text-anchor:middle;font-family:monospace;font-style:normal;font-weight:normal" x="961.7" y="392.062">request_date</text>
  </g>
  <line style="fill: none; fill-opacity:0; stroke-width: 2; stroke: #000000" x1="670.401" y1="482.392" x2="917.959" y2="402.906"/>
  <g>
    <ellipse style="fill: #ffffff" cx="957.85" cy="436.862" rx="62.35" ry="18"/>
    <ellipse style="fill: none; fill-opacity:0; stroke-width: 2; stroke: #000000" cx="957.85" cy="436.862" rx="62.35" ry="18"/>
    <text font-size="12.8" style="fill: #000000;text-anchor:middle;font-family:monospace;font-style:normal;font-weight:normal" x="957.85" y="440.062">target_date</text>
  </g>
  <line style="fill: none; fill-opacity:0; stroke-width: 2; stroke: #000000" x1="670.399" y1="488.348" x2="903.878" y2="446.529"/>
  <g>
    <rect style="fill: #ffffff" x="1211.3" y="515.316" width="143.5" height="36"/>
    <rect style="fill: none; fill-opacity:0; stroke-width: 2; stroke: #000000" x="1211.3" y="515.316" width="143.5" height="36"/>
    <text font-size="12.8" style="fill: #000000;text-anchor:middle;font-family:monospace;font-style:normal;font-weight:normal" x="1283.05" y="536.516">Request_Project</text>
  </g>
  <g>
    <ellipse style="fill: #ffffff" cx="204.55" cy="602.862" rx="70.05" ry="18"/>
    <ellipse style="fill: none; fill-opacity:0; stroke-width: 2; stroke: #000000" cx="204.55" cy="602.862" rx="70.05" ry="18"/>
    <text font-size="12.8" style="fill: #000000;text-anchor:middle;font-family:monospace;font-style:normal;font-weight:normal" x="204.55" y="606.062">request_skill</text>
    <line style="fill: none; fill-opacity:0; stroke-width: 2; stroke: #000000" x1="154.5" y1="610.862" x2="254.6" y2="610.862"/>
  </g>
  <line style="fill: none; fill-opacity:0; stroke-width: 2; stroke: #000000" x1="204.55" y1="583.873" x2="204.55" y2="563.851"/>
  <g>
    <polygon style="fill: #ffffff" points="1050.88,532.862 1070.88,520.862 1090.88,532.862 1070.88,544.862 "/>
    <polygon style="fill: none; fill-opacity:0; stroke-width: 2; stroke: #000000" points="1050.88,532.862 1070.88,520.862 1090.88,532.862 1070.88,544.862 "/>
    <text font-size="12.8" style="fill: #000000;text-anchor:end;font-family:monospace;font-style:normal;font-weight:normal" x="1044.88" y="526.862">N</text>
    <text font-size="12.8" style="fill: #000000;text-anchor:start;font-family:monospace;font-style:normal;font-weight:normal" x="1096.88" y="526.862">1</text>
    <text font-size="12.8" style="fill: #000000;text-anchor:middle;font-family:monospace;font-style:normal;font-weight:normal" x="1070.88" y="536.062"></text>
  </g>
  <g>
    <polyline style="fill: none; fill-opacity:0; stroke-width: 2; stroke: #000000" points="630.95,514.848 630.95,532.362 1048.38,532.362 1048.38,532.862 "/>
    <polyline style="fill: none; fill-opacity:0; stroke-width: 2; stroke: #000000" points="625.95,514.848 625.95,537.362 1053.38,537.362 1053.38,532.862 "/>
  </g>
  <polyline style="fill: none; fill-opacity:0; stroke-width: 2; stroke: #000000" points="1090.88,532.862 1150.59,532.862 1150.59,533.316 1210.29,533.316 "/>
  <g>
    <ellipse style="fill: #ffffff" cx="1281.84" cy="467.736" rx="77.75" ry="18"/>
    <ellipse style="fill: none; fill-opacity:0; stroke-width: 2; stroke: #000000" cx="1281.84" cy="467.736" rx="77.75" ry="18"/>
    <text font-size="12.8" style="fill: #000000;text-anchor:middle;font-family:monospace;font-style:normal;font-weight:normal" x="1281.84" y="470.936">request_project</text>
    <line style="fill: none; fill-opacity:0; stroke-width: 2; stroke: #000000" x1="1224.09" y1="475.736" x2="1339.59" y2="475.736"/>
  </g>
  <line style="fill: none; fill-opacity:0; stroke-width: 2; stroke: #000000" x1="1282.19" y1="486.733" x2="1282.7" y2="514.319"/>
  <g>
    <ellipse style="fill: #ffffff" cx="811.5" cy="284.862" rx="97" ry="18"/>
    <ellipse style="fill: none; fill-opacity:0; stroke-width: 2; stroke: #000000" cx="811.5" cy="284.862" rx="97" ry="18"/>
    <text font-size="12.8" style="fill: #000000;text-anchor:middle;font-family:monospace;font-style:normal;font-weight:normal" x="811.5" y="288.062">date_to_send_profile</text>
  </g>
  <line style="fill: none; fill-opacity:0; stroke-width: 2; stroke: #000000" x1="644.918" y1="476.879" x2="795.428" y2="303.388"/>
  <g>
    <ellipse style="fill: #ffffff" cx="830.3" cy="338.862" rx="50.8" ry="18"/>
    <ellipse style="fill: none; fill-opacity:0; stroke-width: 2; stroke: #000000" cx="830.3" cy="338.862" rx="50.8" ry="18"/>
    <text font-size="12.8" style="fill: #000000;text-anchor:middle;font-family:monospace;font-style:normal;font-weight:normal" x="830.3" y="342.062">progress</text>
  </g>
  <line style="fill: none; fill-opacity:0; stroke-width: 2; stroke: #000000" x1="652.499" y1="477.157" x2="808.457" y2="355.852"/>
  <g>
    <rect style="fill: #ffffff" x="1111.5" y="352.862" width="158.9" height="36"/>
    <rect style="fill: none; fill-opacity:0; stroke-width: 2; stroke: #000000" x="1111.5" y="352.862" width="158.9" height="36"/>
    <text font-size="12.8" style="fill: #000000;text-anchor:middle;font-family:monospace;font-style:normal;font-weight:normal" x="1190.95" y="374.062">Request_State_Csl</text>
  </g>
  <polyline style="fill: none; fill-opacity:0; stroke-width: 2; stroke: #000000" points="1092.5,495.862 1092.5,495.874 1190.95,495.874 1190.95,389.861 "/>
  <g>
    <ellipse style="fill: #ffffff" cx="1189.95" cy="321.862" rx="85.45" ry="18"/>
    <ellipse style="fill: none; fill-opacity:0; stroke-width: 2; stroke: #000000" cx="1189.95" cy="321.862" rx="85.45" ry="18"/>
    <text font-size="12.8" style="fill: #000000;text-anchor:middle;font-family:monospace;font-style:normal;font-weight:normal" x="1189.95" y="325.062">request_state_csl</text>
    <line style="fill: none; fill-opacity:0; stroke-width: 2; stroke: #000000" x1="1124.5" y1="329.862" x2="1255.4" y2="329.862"/>
  </g>
  <line style="fill: none; fill-opacity:0; stroke-width: 2; stroke: #000000" x1="1190.56" y1="351.859" x2="1190.34" y2="340.865"/>
  <g>
    <rect style="fill: #ffffff" x="147.5" y="462.862" width="128.1" height="36"/>
    <rect style="fill: none; fill-opacity:0; stroke-width: 2; stroke: #000000" x="147.5" y="462.862" width="128.1" height="36"/>
    <text font-size="12.8" style="fill: #000000;text-anchor:middle;font-family:monospace;font-style:normal;font-weight:normal" x="211.55" y="484.062">Request_State</text>
  </g>
  <g>
    <ellipse style="fill: #ffffff" cx="195.55" cy="433.612" rx="70.05" ry="18"/>
    <ellipse style="fill: none; fill-opacity:0; stroke-width: 2; stroke: #000000" cx="195.55" cy="433.612" rx="70.05" ry="18"/>
    <text font-size="12.8" style="fill: #000000;text-anchor:middle;font-family:monospace;font-style:normal;font-weight:normal" x="195.55" y="436.812">request_state</text>
    <line style="fill: none; fill-opacity:0; stroke-width: 2; stroke: #000000" x1="145.5" y1="441.612" x2="245.6" y2="441.612"/>
  </g>
  <line style="fill: none; fill-opacity:0; stroke-width: 2; stroke: #000000" x1="205.144" y1="461.944" x2="201.945" y2="452.496"/>
  <g>
    <rect style="fill: #ffffff" x="161" y="717.42" width="135.8" height="36"/>
    <rect style="fill: none; fill-opacity:0; stroke-width: 2; stroke: #000000" x="161" y="717.42" width="135.8" height="36"/>
    <text font-size="12.8" style="fill: #000000;text-anchor:middle;font-family:monospace;font-style:normal;font-weight:normal" x="228.9" y="738.62">Process_Status</text>
  </g>
  <g>
    <ellipse style="fill: #ffffff" cx="227.6" cy="784.342" rx="43.1" ry="18"/>
    <ellipse style="fill: none; fill-opacity:0; stroke-width: 2; stroke: #000000" cx="227.6" cy="784.342" rx="43.1" ry="18"/>
    <text font-size="12.8" style="fill: #000000;text-anchor:middle;font-family:monospace;font-style:normal;font-weight:normal" x="227.6" y="787.542">status</text>
    <line style="fill: none; fill-opacity:0; stroke-width: 2; stroke: #000000" x1="204.5" y1="792.342" x2="250.7" y2="792.342"/>
  </g>
  <line style="fill: none; fill-opacity:0; stroke-width: 2; stroke: #000000" x1="228.104" y1="765.375" x2="228.396" y2="754.387"/>
  <g>
    <polygon style="fill: #ffffff" points="375.7,734.748 395.7,722.748 415.7,734.748 395.7,746.748 "/>
    <polygon style="fill: none; fill-opacity:0; stroke-width: 2; stroke: #000000" points="375.7,734.748 395.7,722.748 415.7,734.748 395.7,746.748 "/>
    <text font-size="12.8" style="fill: #000000;text-anchor:end;font-family:monospace;font-style:normal;font-weight:normal" x="369.7" y="728.748">1</text>
    <text font-size="12.8" style="fill: #000000;text-anchor:start;font-family:monospace;font-style:normal;font-weight:normal" x="421.7" y="728.748">N</text>
    <text font-size="12.8" style="fill: #000000;text-anchor:middle;font-family:monospace;font-style:normal;font-weight:normal" x="395.7" y="737.948"></text>
  </g>
  <g>
    <polyline style="fill: none; fill-opacity:0; stroke-width: 2; stroke: #000000" points="415.7,732.248 498.597,732.248 498.597,731.932 586.495,731.932 "/>
    <polyline style="fill: none; fill-opacity:0; stroke-width: 2; stroke: #000000" points="415.7,737.248 503.597,737.248 503.597,736.932 586.495,736.932 "/>
  </g>
  <g>
    <ellipse style="fill: #ffffff" cx="607.304" cy="1045.08" rx="54.65" ry="18"/>
    <ellipse style="fill: none; fill-opacity:0; stroke-width: 2; stroke: #000000" cx="607.304" cy="1045.08" rx="54.65" ry="18"/>
    <text font-size="12.8" style="fill: #000000;text-anchor:middle;font-family:monospace;font-style:normal;font-weight:normal" x="607.304" y="1048.28">available</text>
  </g>
  <line style="fill: none; fill-opacity:0; stroke-width: 2; stroke: #000000" x1="623.406" y1="980.721" x2="612.033" y2="1026.18"/>
  <g>
    <polygon style="fill: #ffffff" points="1055,592.536 1075,580.536 1095,592.536 1075,604.536 "/>
    <polygon style="fill: none; fill-opacity:0; stroke-width: 2; stroke: #000000" points="1055,592.536 1075,580.536 1095,592.536 1075,604.536 "/>
    <text font-size="12.8" style="fill: #000000;text-anchor:end;font-family:monospace;font-style:normal;font-weight:normal" x="1049" y="586.536">N</text>
    <text font-size="12.8" style="fill: #000000;text-anchor:start;font-family:monospace;font-style:normal;font-weight:normal" x="1101" y="586.536">1</text>
    <text font-size="12.8" style="fill: #000000;text-anchor:middle;font-family:monospace;font-style:normal;font-weight:normal" x="1075" y="595.736"></text>
  </g>
  <g>
    <polyline style="fill: none; fill-opacity:0; stroke-width: 2; stroke: #000000" points="630.95,514.84 630.95,590.408 1052.5,590.408 1052.5,592.536 "/>
    <polyline style="fill: none; fill-opacity:0; stroke-width: 2; stroke: #000000" points="625.95,514.84 625.95,595.408 1057.5,595.408 1057.5,592.536 "/>
  </g>
  <g>
    <polygon style="fill: #ffffff" points="404,432.844 424,420.844 444,432.844 424,444.844 "/>
    <polygon style="fill: none; fill-opacity:0; stroke-width: 2; stroke: #000000" points="404,432.844 424,420.844 444,432.844 424,444.844 "/>
    <text font-size="12.8" style="fill: #000000;text-anchor:end;font-family:monospace;font-style:normal;font-weight:normal" x="398" y="426.844">1</text>
    <text font-size="12.8" style="fill: #000000;text-anchor:start;font-family:monospace;font-style:normal;font-weight:normal" x="450" y="426.844">N</text>
    <text font-size="12.8" style="fill: #000000;text-anchor:middle;font-family:monospace;font-style:normal;font-weight:normal" x="424" y="436.044"></text>
  </g>
  <g>
    <polyline style="fill: none; fill-opacity:0; stroke-width: 2; stroke: #000000" points="444.942,430.344 518.218,430.344 518.218,493.362 586.495,493.362 "/>
    <polyline style="fill: none; fill-opacity:0; stroke-width: 2; stroke: #000000" points="444.942,435.344 513.218,435.344 513.218,498.362 586.495,498.362 "/>
  </g>
  <polyline style="fill: none; fill-opacity:0; stroke-width: 2; stroke: #000000" points="403.058,432.844 339.833,432.844 339.833,480.862 276.608,480.862 "/>
  <polyline style="fill: none; fill-opacity:0; stroke-width: 2; stroke: #000000" points="375.7,734.748 336.754,734.748 336.754,735.42 297.808,735.42 "/>
  <g>
    <rect style="fill: #ffffff" x="1254" y="714.914" width="66.5" height="36"/>
    <rect style="fill: none; fill-opacity:0; stroke-width: 2; stroke: #000000" x="1254" y="714.914" width="66.5" height="36"/>
    <text font-size="12.8" style="fill: #000000;text-anchor:middle;font-family:monospace;font-style:normal;font-weight:normal" x="1287.25" y="736.114">Phase</text>
  </g>
  <g>
    <rect style="fill: #ffffff" x="579.244" y="62.9074" width="97.3" height="36"/>
    <rect style="fill: none; fill-opacity:0; stroke-width: 2; stroke: #000000" x="579.244" y="62.9074" width="97.3" height="36"/>
    <text font-size="12.8" style="fill: #000000;text-anchor:middle;font-family:monospace;font-style:normal;font-weight:normal" x="627.894" y="84.1074">Role_Type</text>
  </g>
  <g>
    <polygon style="fill: #ffffff" points="608.244,149.907 628.244,137.907 648.244,149.907 628.244,161.907 "/>
    <polygon style="fill: none; fill-opacity:0; stroke-width: 2; stroke: #000000" points="608.244,149.907 628.244,137.907 648.244,149.907 628.244,161.907 "/>
    <text font-size="12.8" style="fill: #000000;text-anchor:start;font-family:monospace;font-style:normal;font-weight:normal" x="632.244" y="131.907">1</text>
    <text font-size="12.8" style="fill: #000000;text-anchor:start;font-family:monospace;font-style:normal;font-weight:normal" x="632.244" y="183.907">N</text>
    <text font-size="12.8" style="fill: #000000;text-anchor:middle;font-family:monospace;font-style:normal;font-weight:normal" x="628.244" y="153.107"></text>
  </g>
  <g>
    <polyline style="fill: none; fill-opacity:0; stroke-width: 2; stroke: #000000" points="626.496,187.87 626.496,186.458 625.744,186.458 625.744,162.892 "/>
    <polyline style="fill: none; fill-opacity:0; stroke-width: 2; stroke: #000000" points="631.496,187.87 631.496,181.458 630.744,181.458 630.744,162.892 "/>
  </g>
  <polyline style="fill: none; fill-opacity:0; stroke-width: 2; stroke: #000000" points="628.244,136.911 628.244,118.414 627.894,118.414 627.894,99.9167 "/>
  <g>
    <ellipse style="fill: #ffffff" cx="769.894" cy="80.4" rx="54.65" ry="18"/>
    <ellipse style="fill: none; fill-opacity:0; stroke-width: 2; stroke: #000000" cx="769.894" cy="80.4" rx="54.65" ry="18"/>
    <text font-size="12.8" style="fill: #000000;text-anchor:middle;font-family:monospace;font-style:normal;font-weight:normal" x="769.894" y="83.6">role_type</text>
    <line style="fill: none; fill-opacity:0; stroke-width: 2; stroke: #000000" x1="735.244" y1="88.4" x2="804.544" y2="88.4"/>
  </g>
  <line style="fill: none; fill-opacity:0; stroke-width: 2; stroke: #000000" x1="677.547" y1="80.73" x2="714.243" y2="80.5989"/>
  <g>
    <rect style="fill: #ffffff" x="161.5" y="316.908" width="151.2" height="36"/>
    <rect style="fill: none; fill-opacity:0; stroke-width: 2; stroke: #000000" x="161.5" y="316.908" width="151.2" height="36"/>
    <text font-size="12.8" style="fill: #000000;text-anchor:middle;font-family:monospace;font-style:normal;font-weight:normal" x="237.1" y="338.108">Request_Language</text>
  </g>
  <g>
    <polygon style="fill: #ffffff" points="458.5,334.908 478.5,322.908 498.5,334.908 478.5,346.908 "/>
    <polygon style="fill: none; fill-opacity:0; stroke-width: 2; stroke: #000000" points="458.5,334.908 478.5,322.908 498.5,334.908 478.5,346.908 "/>
    <text font-size="12.8" style="fill: #000000;text-anchor:end;font-family:monospace;font-style:normal;font-weight:normal" x="452.5" y="328.908">N</text>
    <text font-size="12.8" style="fill: #000000;text-anchor:start;font-family:monospace;font-style:normal;font-weight:normal" x="504.5" y="328.908">N</text>
    <text font-size="12.8" style="fill: #000000;text-anchor:middle;font-family:monospace;font-style:normal;font-weight:normal" x="478.5" y="338.108"></text>
  </g>
  <polyline style="fill: none; fill-opacity:0; stroke-width: 2; stroke: #000000" points="313.709,334.908 314.709,334.908 456.558,334.908 457.558,334.908 "/>
  <polyline style="fill: none; fill-opacity:0; stroke-width: 2; stroke: #000000" points="498.5,334.908 543,334.908 543,495.862 587.5,495.862 "/>
  <g>
    <ellipse style="fill: #ffffff" cx="293.3" cy="393.908" rx="50.8" ry="18"/>
    <ellipse style="fill: none; fill-opacity:0; stroke-width: 2; stroke: #000000" cx="293.3" cy="393.908" rx="50.8" ry="18"/>
    <text font-size="12.8" style="fill: #000000;text-anchor:middle;font-family:monospace;font-style:normal;font-weight:normal" x="293.3" y="397.108">language</text>
    <line style="fill: none; fill-opacity:0; stroke-width: 2; stroke: #000000" x1="262.5" y1="401.908" x2="324.1" y2="401.908"/>
  </g>
  <line style="fill: none; fill-opacity:0; stroke-width: 2; stroke: #000000" x1="255.156" y1="353.864" x2="276.362" y2="376.126"/>
  <g>
    <ellipse style="fill: #ffffff" cx="440.65" cy="282.908" rx="93.15" ry="18"/>
    <ellipse style="fill: none; fill-opacity:0; stroke-width: 2; stroke: #000000" cx="440.65" cy="282.908" rx="93.15" ry="18"/>
    <text font-size="12.8" style="fill: #000000;text-anchor:middle;font-family:monospace;font-style:normal;font-weight:normal" x="440.65" y="286.108">mandatory_or_valued</text>
  </g>
  <line style="fill: none; fill-opacity:0; stroke-width: 2; stroke: #000000" x1="454.197" y1="301.519" x2="469.033" y2="321.902"/>
  <g>
    <ellipse style="fill: #ffffff" cx="280.7" cy="163.907" rx="66.2" ry="18"/>
    <ellipse style="fill: none; fill-opacity:0; stroke-width: 2; stroke: #000000" cx="280.7" cy="163.907" rx="66.2" ry="18"/>
    <text font-size="12.8" style="fill: #000000;text-anchor:middle;font-family:monospace;font-style:normal;font-weight:normal" x="280.7" y="167.107">last_sign_in</text>
  </g>
  <line style="fill: none; fill-opacity:0; stroke-width: 2; stroke: #000000" x1="363.555" y1="203.453" x2="314.375" y2="179.98"/>
  <polyline style="fill: none; fill-opacity:0; stroke-width: 2; stroke: #000000" points="1095,592.536 1331.75,592.536 1331.75,592.65 1568.49,592.65 "/>
  <g>
    <polygon style="fill: #ffffff" points="759.5,732.908 779.5,720.908 799.5,732.908 779.5,744.908 "/>
    <polygon style="fill: none; fill-opacity:0; stroke-width: 2; stroke: #000000" points="759.5,732.908 779.5,720.908 799.5,732.908 779.5,744.908 "/>
    <text font-size="12.8" style="fill: #000000;text-anchor:end;font-family:monospace;font-style:normal;font-weight:normal" x="753.5" y="726.908">N</text>
    <text font-size="12.8" style="fill: #000000;text-anchor:start;font-family:monospace;font-style:normal;font-weight:normal" x="805.5" y="726.908">1</text>
    <text font-size="12.8" style="fill: #000000;text-anchor:middle;font-family:monospace;font-style:normal;font-weight:normal" x="779.5" y="736.108"></text>
  </g>
  <g>
    <rect style="fill: #ffffff" x="869.5" y="714.908" width="89.6" height="36"/>
    <rect style="fill: none; fill-opacity:0; stroke-width: 2; stroke: #000000" x="869.5" y="714.908" width="89.6" height="36"/>
    <text font-size="12.8" style="fill: #000000;text-anchor:middle;font-family:monospace;font-style:normal;font-weight:normal" x="914.3" y="736.108">Workflow</text>
  </g>
  <g>
    <polyline style="fill: none; fill-opacity:0; stroke-width: 2; stroke: #000000" points="670.405,493.362 716.982,493.362 716.982,730.408 758.558,730.408 "/>
    <polyline style="fill: none; fill-opacity:0; stroke-width: 2; stroke: #000000" points="670.405,498.362 711.982,498.362 711.982,735.408 758.558,735.408 "/>
  </g>
  <polyline style="fill: none; fill-opacity:0; stroke-width: 2; stroke: #000000" points="800.442,732.908 801.442,732.908 867.494,732.908 868.494,732.908 "/>
  <text font-size="12.8" style="fill: #000000;text-anchor:start;font-family:sans-serif;font-style:normal;font-weight:normal" x="604.5" y="772.244">
    <tspan x="604.5" y="772.244">N</tspan>
  </text>
  <polyline style="fill: none; fill-opacity:0; stroke-width: 2; stroke: #000000" points="960.106,732.908 961.106,732.908 1080.06,732.908 1081.06,732.908 "/>
  <g>
    <ellipse style="fill: #ffffff" cx="1101.7" cy="668.908" rx="66.2" ry="18"/>
    <ellipse style="fill: none; fill-opacity:0; stroke-width: 2; stroke: #000000" cx="1101.7" cy="668.908" rx="66.2" ry="18"/>
    <text font-size="12.8" style="fill: #000000;text-anchor:middle;font-family:monospace;font-style:normal;font-weight:normal" x="1101.7" y="672.108">phase_number</text>
  </g>
  <g>
    <ellipse style="fill: #ffffff" cx="821.5" cy="844.308" rx="58.5" ry="18"/>
    <ellipse style="fill: none; fill-opacity:0; stroke-width: 2; stroke: #000000" cx="821.5" cy="844.308" rx="58.5" ry="18"/>
    <text font-size="12.8" style="fill: #000000;text-anchor:middle;font-family:monospace;font-style:normal;font-weight:normal" x="821.5" y="847.508">start_date</text>
  </g>
  <g>
    <ellipse style="fill: #ffffff" cx="1177.75" cy="847.908" rx="39.25" ry="18"/>
    <ellipse style="fill: none; fill-opacity:0; stroke-width: 2; stroke: #000000" cx="1177.75" cy="847.908" rx="39.25" ry="18"/>
    <text font-size="12.8" style="fill: #000000;text-anchor:middle;font-family:monospace;font-style:normal;font-weight:normal" x="1177.75" y="851.108">notes</text>
  </g>
  <g>
    <ellipse style="fill: #ffffff" cx="775.83" cy="1008.77" rx="66.2" ry="18"/>
    <ellipse style="fill: none; fill-opacity:0; stroke-width: 2; stroke: #000000" cx="775.83" cy="1008.77" rx="66.2" ry="18"/>
    <text font-size="12.8" style="fill: #000000;text-anchor:middle;font-family:monospace;font-style:normal;font-weight:normal" x="775.83" y="1011.97">profile_info</text>
  </g>
  <line style="fill: none; fill-opacity:0; stroke-width: 2; stroke: #000000" x1="731.899" y1="994.781" x2="677.81" y2="977.552"/>
  <g>
    <rect style="fill: #ffffff" x="329.502" y="874.698" width="166.6" height="36"/>
    <rect style="fill: none; fill-opacity:0; stroke-width: 2; stroke: #000000" x="329.502" y="874.698" width="166.6" height="36"/>
    <text font-size="12.8" style="fill: #000000;text-anchor:middle;font-family:monospace;font-style:normal;font-weight:normal" x="412.802" y="895.898">Unavailable_Reason</text>
  </g>
  <g>
    <ellipse style="fill: #ffffff" cx="343.89" cy="845.31" rx="43.1" ry="18"/>
    <ellipse style="fill: none; fill-opacity:0; stroke-width: 2; stroke: #000000" cx="343.89" cy="845.31" rx="43.1" ry="18"/>
    <text font-size="12.8" style="fill: #000000;text-anchor:middle;font-family:monospace;font-style:normal;font-weight:normal" x="343.89" y="848.51">reason</text>
    <line style="fill: none; fill-opacity:0; stroke-width: 2; stroke: #000000" x1="320.79" y1="853.31" x2="366.99" y2="853.31"/>
  </g>
  <line style="fill: none; fill-opacity:0; stroke-width: 2; stroke: #000000" x1="385.177" y1="873.701" x2="367.082" y2="861.258"/>
  <g>
    <polygon style="fill: #ffffff" points="450.502,803.698 470.502,791.698 490.502,803.698 470.502,815.698 "/>
    <polygon style="fill: none; fill-opacity:0; stroke-width: 2; stroke: #000000" points="450.502,803.698 470.502,791.698 490.502,803.698 470.502,815.698 "/>
    <text font-size="12.8" style="fill: #000000;text-anchor:end;font-family:monospace;font-style:normal;font-weight:normal" x="444.502" y="797.698">1</text>
    <text font-size="12.8" style="fill: #000000;text-anchor:start;font-family:monospace;font-style:normal;font-weight:normal" x="496.502" y="797.698">N</text>
    <text font-size="12.8" style="fill: #000000;text-anchor:middle;font-family:monospace;font-style:normal;font-weight:normal" x="470.502" y="806.898"></text>
  </g>
  <polyline style="fill: none; fill-opacity:0; stroke-width: 2; stroke: #000000" points="586.495,734.432 538.969,734.432 538.969,803.698 491.444,803.698 "/>
  <polyline style="fill: none; fill-opacity:0; stroke-width: 2; stroke: #000000" points="450.502,803.698 450.502,805.698 412.802,805.698 412.802,873.699 "/>
  <polyline style="fill: none; fill-opacity:0; stroke-width: 2; stroke: #000000" points="1122,732.908 1187.5,732.908 1187.5,732.914 1252.99,732.914 "/>
  <g>
    <polygon style="fill: #ffffff" points="1070.26,893.19 1090.26,881.19 1110.26,893.19 1090.26,905.19 "/>
    <polygon style="fill: none; fill-opacity:0; stroke-width: 2; stroke: #000000" points="1070.26,893.19 1090.26,881.19 1110.26,893.19 1090.26,905.19 "/>
    <text font-size="12.8" style="fill: #000000;text-anchor:end;font-family:monospace;font-style:normal;font-weight:normal" x="1064.26" y="887.19">N</text>
    <text font-size="12.8" style="fill: #000000;text-anchor:start;font-family:monospace;font-style:normal;font-weight:normal" x="1116.26" y="887.19">N</text>
    <text font-size="12.8" style="fill: #000000;text-anchor:middle;font-family:monospace;font-style:normal;font-weight:normal" x="1090.26" y="896.39"></text>
  </g>
  <g>
    <ellipse style="fill: #ffffff" cx="1287.75" cy="672.908" rx="39.25" ry="18"/>
    <ellipse style="fill: none; fill-opacity:0; stroke-width: 2; stroke: #000000" cx="1287.75" cy="672.908" rx="39.25" ry="18"/>
    <text font-size="12.8" style="fill: #000000;text-anchor:middle;font-family:monospace;font-style:normal;font-weight:normal" x="1287.75" y="676.108">phase</text>
    <line style="fill: none; fill-opacity:0; stroke-width: 2; stroke: #000000" x1="1268.5" y1="680.908" x2="1307" y2="680.908"/>
  </g>
  <line style="fill: none; fill-opacity:0; stroke-width: 2; stroke: #000000" x1="1287.59" y1="691.909" x2="1287.41" y2="713.913"/>
  <g>
    <ellipse style="fill: #ffffff" cx="1167" cy="921.908" rx="58.5" ry="18"/>
    <ellipse style="fill: none; fill-opacity:0; stroke-width: 2; stroke: #000000" cx="1167" cy="921.908" rx="58.5" ry="18"/>
    <text font-size="12.8" style="fill: #000000;text-anchor:middle;font-family:monospace;font-style:normal;font-weight:normal" x="1167" y="925.108">info_value</text>
  </g>
  <g>
    <polygon style="fill: #ffffff" points="1082,732.908 1102,720.908 1122,732.908 1102,744.908 "/>
    <polygon style="fill: none; fill-opacity:0; stroke-width: 2; stroke: #000000" points="1082,732.908 1102,720.908 1122,732.908 1102,744.908 "/>
    <text font-size="12.8" style="fill: #000000;text-anchor:end;font-family:monospace;font-style:normal;font-weight:normal" x="1076" y="726.908">N</text>
    <text font-size="12.8" style="fill: #000000;text-anchor:start;font-family:monospace;font-style:normal;font-weight:normal" x="1128" y="726.908">N</text>
    <text font-size="12.8" style="fill: #000000;text-anchor:middle;font-family:monospace;font-style:normal;font-weight:normal" x="1102" y="736.108"></text>
  </g>
  <g>
    <rect style="fill: #ffffff" x="1507.01" y="715" width="58.8" height="36"/>
    <rect style="fill: none; fill-opacity:0; stroke-width: 2; stroke: #000000" x="1507.01" y="715" width="58.8" height="36"/>
    <text font-size="12.8" style="fill: #000000;text-anchor:middle;font-family:monospace;font-style:normal;font-weight:normal" x="1536.41" y="736.2">Info</text>
  </g>
  <g>
    <polygon style="fill: #ffffff" points="1403.01,733 1423.01,721 1443.01,733 1423.01,745 "/>
    <polygon style="fill: none; fill-opacity:0; stroke-width: 2; stroke: #000000" points="1403.01,733 1423.01,721 1443.01,733 1423.01,745 "/>
    <text font-size="12.8" style="fill: #000000;text-anchor:end;font-family:monospace;font-style:normal;font-weight:normal" x="1397.01" y="727">N</text>
    <text font-size="12.8" style="fill: #000000;text-anchor:start;font-family:monospace;font-style:normal;font-weight:normal" x="1449.01" y="727">N</text>
    <text font-size="12.8" style="fill: #000000;text-anchor:middle;font-family:monospace;font-style:normal;font-weight:normal" x="1423.01" y="736.2"></text>
  </g>
  <polyline style="fill: none; fill-opacity:0; stroke-width: 2; stroke: #000000" points="1321.51,732.914 1361.79,732.914 1361.79,733 1402.06,733 "/>
  <polyline style="fill: none; fill-opacity:0; stroke-width: 2; stroke: #000000" points="1443.95,733 1444.95,733 1505,733 1506,733 "/>
  <g>
    <ellipse style="fill: #ffffff" cx="914.806" cy="677" rx="50.8" ry="18"/>
    <ellipse style="fill: none; fill-opacity:0; stroke-width: 2; stroke: #000000" cx="914.806" cy="677" rx="50.8" ry="18"/>
    <text font-size="12.8" style="fill: #000000;text-anchor:middle;font-family:monospace;font-style:normal;font-weight:normal" x="914.806" y="680.2">workflow</text>
    <line style="fill: none; fill-opacity:0; stroke-width: 2; stroke: #000000" x1="884.006" y1="685" x2="945.606" y2="685"/>
  </g>
  <line style="fill: none; fill-opacity:0; stroke-width: 2; stroke: #000000" x1="914.472" y1="713.901" x2="914.635" y2="695.891"/>
  <line style="fill: none; fill-opacity:0; stroke-width: 2; stroke: #000000" x1="1102" y1="720.908" x2="1101.81" y2="687.913"/>
  <g>
    <ellipse style="fill: #ffffff" cx="1449.66" cy="679" rx="54.65" ry="18"/>
    <ellipse style="fill: none; fill-opacity:0; stroke-width: 2; stroke: #000000" cx="1449.66" cy="679" rx="54.65" ry="18"/>
    <text font-size="12.8" style="fill: #000000;text-anchor:middle;font-family:monospace;font-style:normal;font-weight:normal" x="1449.66" y="682.2">info_name</text>
    <line style="fill: none; fill-opacity:0; stroke-width: 2; stroke: #000000" x1="1415.01" y1="687" x2="1484.31" y2="687"/>
  </g>
  <line style="fill: none; fill-opacity:0; stroke-width: 2; stroke: #000000" x1="1476.06" y1="695.433" x2="1506.04" y2="714.095"/>
  <g>
    <ellipse style="fill: #ffffff" cx="1577.66" cy="676" rx="54.65" ry="18"/>
    <ellipse style="fill: none; fill-opacity:0; stroke-width: 2; stroke: #000000" cx="1577.66" cy="676" rx="54.65" ry="18"/>
    <text font-size="12.8" style="fill: #000000;text-anchor:middle;font-family:monospace;font-style:normal;font-weight:normal" x="1577.66" y="679.2">json_info</text>
  </g>
  <line style="fill: none; fill-opacity:0; stroke-width: 2; stroke: #000000" x1="1550.15" y1="714.005" x2="1564.4" y2="694.32"/>
  <polyline style="fill: none; fill-opacity:0; stroke-width: 2; stroke: #000000" points="637.754,759 637.754,893 1070.26,893 1070.26,893.19 "/>
  <polyline style="fill: none; fill-opacity:0; stroke-width: 2; stroke: #000000" points="1110.26,893.19 1110.26,894 1536.41,894 1536.41,751.995 "/>
  <line style="fill: none; fill-opacity:0; stroke-width: 2; stroke: #000000" x1="1126.84" y1="908.236" x2="1100.26" y2="899.19"/>
  <g>
    <polygon style="fill: #ffffff" points="986.008,812 1006.01,800 1026.01,812 1006.01,824 "/>
    <polygon style="fill: none; fill-opacity:0; stroke-width: 2; stroke: #000000" points="986.008,812 1006.01,800 1026.01,812 1006.01,824 "/>
    <text font-size="12.8" style="fill: #000000;text-anchor:end;font-family:monospace;font-style:normal;font-weight:normal" x="980.008" y="806">N</text>
    <text font-size="12.8" style="fill: #000000;text-anchor:start;font-family:monospace;font-style:normal;font-weight:normal" x="1032.01" y="806">N</text>
    <text font-size="12.8" style="fill: #000000;text-anchor:middle;font-family:monospace;font-style:normal;font-weight:normal" x="1006.01" y="815.2"></text>
  </g>
  <polyline style="fill: none; fill-opacity:0; stroke-width: 2; stroke: #000000" points="643.754,760 643.754,812 986.008,812 986.008,812 "/>
  <polyline style="fill: none; fill-opacity:0; stroke-width: 2; stroke: #000000" points="1026.01,812 1026.01,813 1287.25,813 1287.25,751.88 "/>
  <line style="fill: none; fill-opacity:0; stroke-width: 2; stroke: #000000" x1="873.325" y1="835.233" x2="985.005" y2="815.678"/>
  <line style="fill: none; fill-opacity:0; stroke-width: 2; stroke: #000000" x1="1141.05" y1="840.235" x2="1026.99" y2="816.388"/>
  <g>
    <ellipse style="fill: #ffffff" cx="1007.51" cy="857" rx="58.5" ry="18"/>
    <ellipse style="fill: none; fill-opacity:0; stroke-width: 2; stroke: #000000" cx="1007.51" cy="857" rx="58.5" ry="18"/>
    <text font-size="12.8" style="fill: #000000;text-anchor:middle;font-family:monospace;font-style:normal;font-weight:normal" x="1007.51" y="860.2">updated_at</text>
  </g>
  <line style="fill: none; fill-opacity:0; stroke-width: 2; stroke: #000000" x1="1006.87" y1="838.005" x2="1006.44" y2="824.832"/>
  <g>
    <polygon style="fill: #ffffff" points="986.368,777.4 1006.37,765.4 1026.37,777.4 1006.37,789.4 "/>
    <polygon style="fill: none; fill-opacity:0; stroke-width: 2; stroke: #000000" points="986.368,777.4 1006.37,765.4 1026.37,777.4 1006.37,789.4 "/>
    <text font-size="12.8" style="fill: #000000;text-anchor:end;font-family:monospace;font-style:normal;font-weight:normal" x="980.368" y="771.4">N</text>
    <text font-size="12.8" style="fill: #000000;text-anchor:start;font-family:monospace;font-style:normal;font-weight:normal" x="1032.37" y="771.4">1</text>
    <text font-size="12.8" style="fill: #000000;text-anchor:middle;font-family:monospace;font-style:normal;font-weight:normal" x="1006.37" y="780.6"></text>
  </g>
  <polyline style="fill: none; fill-opacity:0; stroke-width: 2; stroke: #000000" points="652.168,762 653.168,762 653.168,777.4 986.368,777.4 "/>
  <polyline style="fill: none; fill-opacity:0; stroke-width: 2; stroke: #000000" points="1026.37,777.4 1278.17,777.4 1278.17,754 1277.17,754 "/>
</svg>
